<svg width="800" height="480" viewBox="0 0 800 480" fill="none" xmlns="http://www.w3.org/2000/svg">
<circle cx="158" cy="240" r="16" fill="#6BCB6F"/>
<path d="M177 240L236 240" stroke="#6BCB6F" stroke-width="4" stroke-dasharray="12 12"/>
<circle cx="256" cy="240" r="16" fill="#6BCB6F"/>
<path d="M274 240L333 240" stroke="#F08E47" stroke-width="4" stroke-dasharray="12 12"/>
<circle cx="352" cy="240" r="12" stroke="#F08E47" stroke-width="8"/>
<path d="M370 240L429 240" stroke="#989898" stroke-width="4" stroke-dasharray="12 12"/>
<circle cx="449" cy="240" r="13.5" stroke="#989898" stroke-width="5"/>
<path d="M449 259L449 318" stroke="#989898" stroke-width="4" stroke-dasharray="12 12"/>
<circle cx="449" cy="337" r="13.5" stroke="#989898" stroke-width="5"/>
<path d="M468 240H527" stroke="#989898" stroke-width="4" stroke-dasharray="12 12"/>
<circle cx="546" cy="240" r="13.5" stroke="#989898" stroke-width="5"/>
<path d="M546 259L546 318" stroke="#989898" stroke-width="4" stroke-dasharray="12 12"/>
<circle cx="546" cy="337" r="13.5" stroke="#989898" stroke-width="5"/>
<path d="M566 337H625" stroke="#989898" stroke-width="4" stroke-dasharray="12 12"/>
<circle cx="643" cy="337" r="13.5" stroke="#989898" stroke-width="5"/>
<path d="M449 162L449 221" stroke="#989898" stroke-width="4" stroke-dasharray="12 12"/>
<circle cx="449" cy="143" r="13.5" stroke="#989898" stroke-width="5"/>
<path d="M468 143H527" stroke="#989898" stroke-width="4" stroke-dasharray="12 12"/>
<circle cx="546" cy="143" r="13.5" stroke="#989898" stroke-width="5"/>
<path d="M566 143H625" stroke="#989898" stroke-width="4" stroke-dasharray="12 12"/>
<circle cx="643" cy="143" r="13.5" stroke="#989898" stroke-width="5"/>
<path d="M643 162L643 221" stroke="#989898" stroke-width="4" stroke-dasharray="12 12"/>
<circle cx="643" cy="240" r="13.5" stroke="#989898" stroke-width="5"/>
</svg>
