<svg width="800" height="480" viewBox="0 0 800 480" fill="none" xmlns="http://www.w3.org/2000/svg">
<rect x="-84" y="-106" width="264" height="390" fill="#494949"/>
<rect x="-84" y="36" width="221" height="543" fill="#494949"/>
<rect x="629" y="389" width="254" height="190" fill="#494949"/>
<rect x="704" y="-99" width="226" height="383" fill="#494949"/>
<rect x="735" y="137" width="160" height="405" fill="#494949"/>
<rect x="-49" y="431" width="448" height="139" fill="#494949"/>
<rect x="25" y="389" width="155" height="151" fill="#494949"/>
<rect x="137" y="463" width="746" height="132" fill="#494949"/>
<rect x="537" y="-94" width="313" height="162" fill="#494949"/>
<rect y="162" width="322" height="79" fill="#494949"/>
<rect y="-117" width="640" height="171" fill="#494949"/>
<rect x="180" y="72" width="7" height="80" fill="#F6EEE5"/>
<rect x="229" y="241" width="80" height="6" fill="#F08E47"/>
<rect x="496" y="451" width="133" height="12" rx="1" fill="#F44545"/>
<rect x="547.005" y="68.005" width="81.99" height="10.99" fill="#35ABEE" stroke="black" stroke-width="0.01"/>
<rect x="693.005" y="68.005" width="10.99" height="81.99" rx="0.995" fill="#35ABEE" stroke="black" stroke-width="0.01"/>
<path d="M587.5 28.5V55.5" stroke="#676767" stroke-width="4.01" stroke-linecap="round" stroke-linejoin="round"/>
<path d="M587.5 28.5H415V36" stroke="#F83F3F" stroke-width="4.01" stroke-linecap="round" stroke-linejoin="round"/>
<path d="M587.5 28.5H730V108H719" stroke="#676767" stroke-width="4.01" stroke-linecap="round" stroke-linejoin="round"/>
<rect opacity="0.5" x="404.005" y="54.005" width="20.99" height="65.99" fill="#383838" stroke="black" stroke-width="0.01"/>
<rect opacity="0.1" x="180" y="152" width="10" height="10" rx="3" fill="#494949"/>
<rect opacity="0.1" x="137" y="379" width="10" height="10" rx="3" fill="#494949"/>
<rect opacity="0.1" x="180" y="421" width="10" height="10" rx="3" fill="#494949"/>
<rect opacity="0.1" x="399" y="453" width="10" height="10" rx="3" fill="#494949"/>
<rect opacity="0.1" x="725" y="379" width="10" height="10" rx="2" fill="#494949"/>
<rect opacity="0.1" x="619" y="453" width="10" height="10" rx="2" fill="#494949"/>
<rect opacity="0.1" x="180" y="54" width="10" height="10" fill="#494949"/>
<rect opacity="0.1" x="180" y="241" width="10" height="10" fill="#494949"/>
<rect opacity="0.1" x="137" y="284" width="10" height="10" fill="#494949"/>
<rect opacity="0.1" x="725" y="284" width="10" height="10" rx="1" fill="#494949"/>
<rect opacity="0.1" x="694" y="68" width="10" height="10" rx="1" fill="#494949"/>
<rect opacity="0.1" x="527" y="54" width="10" height="10" rx="1" fill="#494949"/>
<rect x="406" y="291" width="17" height="17" rx="5" fill="#FFD465" stroke="#E2A734" stroke-width="3"/>
</svg>
