<svg width="800" height="480" viewBox="0 0 800 480" fill="none" xmlns="http://www.w3.org/2000/svg">
<rect x="-99" y="-158" width="998" height="215" fill="#494949"/>
<rect x="478" y="155" width="322" height="56" fill="#494949"/>
<rect x="-114" y="107" width="419" height="104" fill="#494949"/>
<rect x="740" y="-110" width="190" height="701" fill="#494949"/>
<rect x="-83" y="411" width="883" height="217" fill="#494949"/>
<rect x="234" y="356" width="665" height="260" fill="#494949"/>
<rect x="234" y="324" width="71" height="191" fill="#494949"/>
<rect x="-126" y="107" width="186" height="421" fill="#494949"/>
<rect opacity="0.1" x="305" y="346" width="10" height="10" rx="3" fill="#494949"/>
<rect opacity="0.1" x="730" y="346" width="10" height="10" rx="2" fill="#494949"/>
<rect opacity="0.1" x="730" y="211" width="10" height="10" rx="1" fill="#494949"/>
<rect opacity="0.1" x="730" y="145" width="10" height="10" rx="2" fill="#494949"/>
<rect opacity="0.1" x="730" y="57" width="10" height="10" rx="1" fill="#494949"/>
<rect opacity="0.1" x="60" y="211" width="10" height="10" fill="#494949"/>
<rect opacity="0.1" x="60" y="401" width="10" height="10" rx="3" fill="#494949"/>
<rect opacity="0.1" x="224" y="401" width="10" height="10" rx="2" fill="#494949"/>
<rect x="315" y="329" width="17" height="17" rx="5" fill="#FFD465" stroke="#F0B542" stroke-width="3"/>
<rect x="70" y="221" width="17" height="17" rx="5" fill="#FFD465" stroke="#F0B542" stroke-width="3"/>
</svg>
