<svg width="800" height="480" viewBox="0 0 800 480" fill="none" xmlns="http://www.w3.org/2000/svg">
<rect x="732" y="-117" width="169" height="623" fill="#494949"/>
<rect x="125" y="307" width="118" height="64" fill="#494949"/>
<rect x="-82" y="-87" width="172" height="348" fill="#494949"/>
<rect x="210" y="-104" width="153" height="279" fill="#494949"/>
<rect x="-68" y="440" width="936" height="123" fill="#494949"/>
<rect x="316" y="400" width="592" height="163" fill="#494949"/>
<rect x="-37" y="-104" width="932" height="144" fill="#494949"/>
<rect x="417" y="181" width="209" height="40" fill="#494949"/>
<rect x="417" y="80" width="63" height="63" fill="#494949"/>
<rect x="527" y="111" width="98" height="32" fill="#494949"/>
<rect x="210" y="221" width="153" height="40" fill="#494949"/>
<rect x="313" y="313" width="92" height="238" fill="#494949"/>
<rect x="-93" y="111" width="118" height="401" fill="#494949"/>
<rect x="585" y="-38" width="40" height="116" fill="#494949"/>
<rect x="130" y="295" width="108" height="12" rx="1" fill="#F44545"/>
<rect x="318" y="301" width="82" height="12" rx="1" fill="#F44545"/>
<rect x="720" y="40" width="12" height="38" rx="1" fill="#F44545"/>
<rect x="301" y="318" width="12" height="82" rx="1" fill="#F44545"/>
<rect x="243" y="312" width="12" height="54" fill="#F44545"/>
<rect x="90" y="136" width="12" height="120" fill="#F44545"/>
<rect x="125" y="428" width="89" height="12" rx="1" fill="#F44545"/>
<rect x="90" y="40" width="103" height="12" fill="#F44545"/>
<rect x="233" y="433" width="80" height="7" rx="1" fill="#7C5DBE"/>
<rect x="725" y="143" width="7" height="117" rx="1" fill="#7C5DBE"/>
<rect x="203" y="42" width="7" height="80" rx="1" fill="#F08E47"/>
<rect x="27" y="433" width="80" height="7" rx="1" fill="#F08E47"/>
<rect opacity="0.1" x="90" y="40" width="10" height="10" fill="#494949"/>
<rect opacity="0.1" x="200" y="40" width="10" height="10" rx="1" fill="#494949"/>
<rect opacity="0.1" x="25" y="261" width="10" height="10" fill="#494949"/>
<rect opacity="0.1" x="25" y="430" width="10" height="10" rx="3" fill="#494949"/>
<rect opacity="0.1" x="303" y="430" width="10" height="10" rx="2" fill="#494949"/>
<rect opacity="0.1" x="405" y="390" width="10" height="10" rx="3" fill="#494949"/>
<rect opacity="0.1" x="722" y="390" width="10" height="10" rx="2" fill="#494949"/>
<rect opacity="0.1" x="625" y="40" width="10" height="10" fill="#494949"/>
<rect opacity="0.1" x="363" y="40" width="10" height="10" fill="#494949"/>
<rect opacity="0.1" x="575" y="40" width="10" height="10" rx="1" fill="#494949"/>
<rect opacity="0.1" x="722" y="40" width="10" height="10" rx="1" fill="#494949"/>
<rect x="95" y="189" width="17" height="17" rx="5" fill="#FFD465" stroke="#E2A734" stroke-width="3"/>
</svg>
