<svg width="800" height="480" viewBox="0 0 800 480" fill="none" xmlns="http://www.w3.org/2000/svg">
<rect x="-73" y="410" width="946" height="153" fill="#494949"/>
<rect x="460" y="350" width="477" height="188" fill="#494949"/>
<rect x="-105" y="-100" width="1010" height="170" fill="#494949"/>
<rect x="306" y="175" width="100" height="115" fill="#494949"/>
<rect x="-45" y="134" width="242" height="91" fill="#494949"/>
<rect x="406" y="-79" width="489" height="304" fill="#494949"/>
<rect x="306" y="175" width="342" height="50" fill="#494949"/>
<rect x="703" y="-100" width="234" height="663" fill="#494949"/>
<rect x="-95" y="-83" width="192" height="646" fill="#494949"/>
<rect opacity="0.1" x="97" y="70" width="10" height="10" fill="#494949"/>
<rect opacity="0.1" x="97" y="225" width="10" height="10" fill="#494949"/>
<rect opacity="0.1" x="406" y="225" width="10" height="10" fill="#494949"/>
<rect opacity="0.1" x="450" y="400" width="10" height="10" rx="2" fill="#494949"/>
<rect opacity="0.1" x="396" y="165" width="10" height="10" rx="2" fill="#494949"/>
<rect opacity="0.1" x="693" y="340" width="10" height="10" rx="2" fill="#494949"/>
<rect opacity="0.1" x="693" y="225" width="10" height="10" rx="1" fill="#494949"/>
<rect opacity="0.1" x="396" y="70" width="10" height="10" rx="1" fill="#494949"/>
<rect opacity="0.1" x="97" y="400" width="10" height="10" rx="3" fill="#494949"/>
<rect opacity="0.1" x="97" y="124" width="10" height="10" rx="3" fill="#494949"/>
</svg>
