<svg width="800" height="480" viewBox="0 0 800 480" fill="none" xmlns="http://www.w3.org/2000/svg">
<rect x="760" y="-78" width="130" height="636" fill="#494949"/>
<rect x="-107" y="268" width="260" height="321" fill="#494949"/>
<rect x="-102" y="-45" width="192" height="479" fill="#494949"/>
<rect x="-102" y="-108" width="255" height="251" fill="#494949"/>
<rect x="-71" y="-108" width="942" height="148" fill="#494949"/>
<rect y="440" width="467" height="156" fill="#494949"/>
<rect x="414" y="367" width="154" height="194" fill="#494949"/>
<rect x="674" y="307" width="236" height="282" fill="#494949"/>
<rect x="414" y="398" width="386" height="163" fill="#494949"/>
<rect x="498" y="268" width="70" height="278" fill="#494949"/>
<rect x="340" y="-86" width="561" height="313" fill="#494949"/>
<rect x="333" y="145" width="7" height="80" rx="1" fill="#F08E47"/>
<rect x="350" y="227" width="100" height="7" fill="#F08E47"/>
<rect x="416" y="360" width="80" height="7" rx="1" fill="#7A51D3"/>
<rect x="753" y="227" width="7" height="80" rx="1" fill="#7A51D3"/>
<rect x="568" y="227" width="52" height="12" fill="#F44545"/>
<rect opacity="0.1" x="90" y="143" width="10" height="10" fill="#494949"/>
<rect opacity="0.1" x="153" y="40" width="10" height="10" fill="#494949"/>
<rect opacity="0.1" x="330" y="40" width="10" height="10" rx="1" fill="#494949"/>
<rect opacity="0.1" x="90" y="258" width="10" height="10" rx="3" fill="#494949"/>
<rect opacity="0.1" x="153" y="430" width="10" height="10" rx="3" fill="#494949"/>
<rect opacity="0.1" x="568" y="388" width="10" height="10" rx="3" fill="#494949"/>
<rect opacity="0.1" x="404" y="430" width="10" height="10" rx="2" fill="#494949"/>
<rect opacity="0.1" x="488" y="357" width="10" height="10" rx="2" fill="#494949"/>
<rect opacity="0.1" x="664" y="388" width="10" height="10" rx="2" fill="#494949"/>
<rect opacity="0.1" x="750" y="297" width="10" height="10" rx="2" fill="#494949"/>
<rect opacity="0.1" x="750" y="227" width="10" height="10" rx="1" fill="#494949"/>
</svg>
