<svg width="800" height="480" viewBox="0 0 800 480" fill="none" xmlns="http://www.w3.org/2000/svg">
<rect x="-133" y="-83" width="286" height="224" fill="#494949"/>
<rect x="30" y="-97" width="229" height="174" fill="#494949"/>
<rect x="396" y="-170" width="153" height="210" fill="#494949"/>
<rect x="661" y="-147" width="285" height="319" fill="#494949"/>
<rect x="724" y="40" width="244" height="320" fill="#494949"/>
<rect x="606" y="252" width="50" height="108" fill="#494949"/>
<rect x="-61" y="352" width="182" height="213" fill="#494949"/>
<rect x="-72" y="459" width="292" height="121" fill="#494949"/>
<rect x="545" y="430" width="179" height="161" fill="#494949"/>
<rect x="-116" y="184" width="135" height="78" fill="#494949"/>
<rect x="259" y="204" width="137" height="185" fill="#494949"/>
<rect x="396" y="231" width="7" height="80" rx="1" fill="#F6EEE5"/>
<rect x="717" y="172" width="7" height="80" rx="1" fill="#F08E47"/>
<rect x="9" y="141" width="80" height="7" fill="#F6EEE5"/>
<rect opacity="0.1" x="714" y="172" width="10" height="10" rx="1" fill="#494949"/>
<rect opacity="0.1" x="153" y="77" width="10" height="10" fill="#494949"/>
<rect opacity="0.1" x="121" y="449" width="10" height="10" rx="3" fill="#494949"/>
<rect x="664" y="297" width="17" height="17" rx="5" fill="#FFD465" stroke="#E2A734" stroke-width="3"/>
</svg>
