<svg width="800" height="480" viewBox="0 0 800 480" fill="none" xmlns="http://www.w3.org/2000/svg">
<rect x="359" y="326" width="6" height="100" rx="1" fill="#F08E47"/>
<rect x="515" y="201" width="100" height="6" rx="1" fill="#7A51D3"/>
<rect x="-92" y="430" width="984" height="156" fill="#494949"/>
<rect x="-92" y="-91" width="603" height="413" fill="#494949"/>
<rect x="365" y="207" width="524" height="354" fill="#494949"/>
<rect x="730" y="-92" width="211" height="664" fill="#494949"/>
<rect x="-107" y="-66" width="217" height="612" fill="#494949"/>
<rect x="-106" y="-109" width="1012" height="159" fill="#494949"/>
<rect opacity="0.1" x="110" y="322" width="10" height="10" fill="#494949"/>
<rect opacity="0.1" x="355" y="322" width="10" height="10" rx="1" fill="#494949"/>
<rect opacity="0.1" x="355" y="420" width="10" height="10" rx="2" fill="#494949"/>
<rect opacity="0.1" x="110" y="420" width="10" height="10" rx="3" fill="#494949"/>
<rect opacity="0.1" x="511" y="50" width="10" height="10" fill="#494949"/>
<rect opacity="0.1" x="720" y="50" width="10" height="10" rx="1" fill="#494949"/>
<rect opacity="0.1" x="720" y="197" width="10" height="10" rx="2" fill="#494949"/>
<rect opacity="0.1" x="511" y="197" width="10" height="10" rx="3" fill="#494949"/>
</svg>
