<svg width="800" height="480" viewBox="0 0 800 480" fill="none" xmlns="http://www.w3.org/2000/svg">
<rect x="546" y="-95" width="373" height="670" fill="#494949"/>
<rect x="-156" y="308" width="986" height="306" fill="#494949"/>
<rect x="-131" y="-87" width="191" height="594" fill="#494949"/>
<rect x="370" y="278" width="412" height="175" fill="#494949"/>
<rect x="-95" y="278" width="374" height="183" fill="#494949"/>
<rect x="-95" y="-87" width="230" height="229" fill="#494949"/>
<rect x="-131" y="-110" width="1062" height="163" fill="#494949"/>
<rect x="540" y="94" width="6" height="80" rx="1" fill="#F6EEE5"/>
<rect x="284" y="301" width="80" height="7" rx="1" fill="#F6EEE5"/>
<rect x="135" y="53" width="12" height="79" fill="#F44545"/>
<rect opacity="0.1" x="135" y="53" width="10" height="10" fill="#494949"/>
<rect opacity="0.1" x="60" y="142" width="10" height="10" fill="#494949"/>
<rect opacity="0.1" x="536" y="53" width="10" height="10" rx="1" fill="#494949"/>
<rect opacity="0.1" x="536" y="268" width="10" height="10" rx="2" fill="#494949"/>
<rect opacity="0.1" x="360" y="298" width="10" height="10" rx="2" fill="#494949"/>
<rect opacity="0.1" x="279" y="298" width="10" height="10" rx="3" fill="#494949"/>
<rect opacity="0.1" x="60" y="268" width="10" height="10" rx="3" fill="#494949"/>
<rect x="67" y="203" width="17" height="17" rx="5" fill="#FFD465" stroke="#E2A734" stroke-width="3"/>
</svg>
