<svg width="800" height="480" viewBox="0 0 800 480" fill="none" xmlns="http://www.w3.org/2000/svg">
<rect x="654" y="-89" width="248" height="656" fill="#494949"/>
<rect x="-124" y="-120" width="270" height="728" fill="#494949"/>
<rect x="-72" y="-137" width="952" height="197" fill="#494949"/>
<rect x="-34" y="421" width="845" height="146" fill="#494949"/>
<rect x="-34" y="180" width="914" height="120" fill="#494949"/>
<rect x="-101" y="193" width="413" height="337" fill="#494949"/>
<rect x="488" y="-89" width="288" height="389" fill="#494949"/>
<rect x="482" y="69" width="6" height="102" rx="1" fill="#F18A40"/>
<rect x="576" y="300" width="70" height="6" fill="#F18A40"/>
<rect x="395" y="156" width="17" height="17" rx="5" fill="#FFD465" stroke="#F0B542" stroke-width="3"/>
<rect opacity="0.1" x="146" y="60" width="10" height="10" fill="#494949"/>
<rect opacity="0.1" x="146" y="170" width="10" height="10" rx="3" fill="#494949"/>
<rect opacity="0.1" x="478" y="60" width="10" height="10" rx="1" fill="#494949"/>
<rect opacity="0.1" x="478" y="170" width="10" height="10" rx="2" fill="#494949"/>
<rect opacity="0.1" x="312" y="300" width="10" height="10" fill="#494949"/>
<rect opacity="0.1" x="312" y="411" width="10" height="10" rx="3" fill="#494949"/>
<rect opacity="0.1" x="644" y="300" width="10" height="10" rx="1" fill="#494949"/>
<rect opacity="0.1" x="644" y="411" width="10" height="10" rx="2" fill="#494949"/>
</svg>
