<svg width="800" height="480" viewBox="0 0 800 480" fill="none" xmlns="http://www.w3.org/2000/svg">
<rect x="410" y="-81" width="130" height="642" fill="#494949"/>
<rect x="740" y="-101" width="162" height="614" fill="#494949"/>
<rect x="-122" y="308" width="1044" height="253" fill="#494949"/>
<rect x="410" y="250" width="526" height="346" fill="#494949"/>
<rect x="-122" y="-81" width="1044" height="141" fill="#494949"/>
<rect x="-93" y="-81" width="153" height="619" fill="#494949"/>
<rect x="-106" y="-101" width="646" height="187" fill="#494949"/>
<rect x="540" y="94" width="6" height="80" fill="#FC954B"/>
<rect x="284" y="301" width="80" height="7" rx="1" fill="#FC954B"/>
<rect x="60.005" y="297.005" width="81.99" height="10.99" rx="0.995" fill="#FE4A49" stroke="black" stroke-width="0.01"/>
<path d="M374 317.5V329.5H101V317.5" stroke="#676767" stroke-width="4.01" stroke-linecap="round" stroke-linejoin="round"/>
<rect opacity="0.5" x="364.005" y="224.005" width="19.99" height="83.99" rx="0.995" fill="#383838" stroke="black" stroke-width="0.01"/>
<rect x="398" y="86" width="12" height="222" rx="1" fill="#F44545"/>
<rect opacity="0.1" x="60" y="86" width="10" height="10" fill="#494949"/>
<rect opacity="0.1" x="400" y="86" width="10" height="10" rx="1" fill="#494949"/>
<rect opacity="0.1" x="730" y="60" width="10" height="10" rx="1" fill="#494949"/>
<rect opacity="0.1" x="540" y="60" width="10" height="10" fill="#494949"/>
<rect opacity="0.1" x="730" y="240" width="10" height="10" rx="2" fill="#494949"/>
<rect opacity="0.1" x="540" y="240" width="10" height="10" rx="3" fill="#494949"/>
<rect opacity="0.1" x="60" y="298" width="10" height="10" rx="3" fill="#494949"/>
<rect opacity="0.1" x="400" y="298" width="10" height="10" rx="2" fill="#494949"/>
<rect x="92" y="260" width="17" height="17" rx="5" fill="#FFD465" stroke="#E2A734" stroke-width="3"/>
<rect x="656" y="150" width="17" height="17" rx="5" fill="#FFD465" stroke="#E2A734" stroke-width="3"/>
</svg>
