<svg width="800" height="480" viewBox="0 0 800 480" fill="none" xmlns="http://www.w3.org/2000/svg">
<rect y="197" width="40" height="283" fill="#494949"/>
<rect x="760" width="40" height="480" fill="#494949"/>
<rect width="240" height="225" fill="#494949"/>
<rect y="20" width="88" height="309" fill="#494949"/>
<rect x="200" width="85" height="85" fill="#494949"/>
<rect x="507" width="293" height="40" fill="#494949"/>
<rect x="281" y="371" width="241" height="109" fill="#494949"/>
<rect x="40" y="450" width="88" height="30" fill="#494949"/>
<rect x="11" y="414" width="77" height="66" fill="#494949"/>
<rect x="621" y="440" width="179" height="40" fill="#494949"/>
<rect x="340" y="135" width="200" height="92" fill="#494949"/>
<rect x="621" y="129" width="179" height="98" fill="#494949"/>
<rect x="716" y="7" width="84" height="150" fill="#494949"/>
<rect x="500" y="197" width="40" height="64" fill="#494949"/>
<rect x="333" y="145" width="7" height="80" rx="1" fill="#F7ECE1"/>
<rect x="350" y="227" width="100" height="7" fill="#F7ECE1"/>
<rect x="709" y="40" width="7" height="89" rx="1" fill="#7A51D3"/>
<rect x="274" y="382" width="7" height="89" rx="1" fill="#7A51D3"/>
<rect x="495" width="12" height="35" rx="1" fill="#F44545"/>
</svg>
