<svg width="800" height="480" viewBox="0 0 800 480" fill="none" xmlns="http://www.w3.org/2000/svg">
<rect x="323" y="228" width="176" height="113" fill="#494949"/>
<rect x="-100" y="-164" width="257" height="216" fill="#494949"/>
<rect x="323" y="-123" width="450" height="187" fill="#494949"/>
<rect x="544" y="409" width="283" height="226" fill="#494949"/>
<rect x="-136" y="228" width="230" height="349" fill="#494949"/>
<rect x="-100" y="409" width="268" height="168" fill="#494949"/>
<rect x="633" y="285" width="349" height="369" fill="#494949"/>
<rect x="-75" y="-40" width="117" height="360" fill="#494949"/>
<rect x="672" y="-53" width="321" height="241" fill="#494949"/>
<rect x="544" y="-123" width="438" height="260" fill="#494949"/>
<rect x="334" y="222" width="80" height="6" rx="1" fill="#7A51D3"/>
<rect x="42" y="52" width="84" height="7" fill="#F6EEE5"/>
<rect x="499" y="253" width="6" height="80" fill="#F6EEE5"/>
<rect x="334" y="77" width="17" height="17" rx="5" fill="#FFD465" stroke="#F0B542" stroke-width="3"/>
<rect opacity="0.1" x="42" y="52" width="10" height="10" fill="#494949"/>
<rect opacity="0.1" x="42" y="218" width="10" height="10" rx="3" fill="#494949"/>
<rect opacity="0.1" x="84" y="399" width="10" height="10" rx="3" fill="#494949"/>
<rect opacity="0.1" x="623" y="399" width="10" height="10" rx="2" fill="#494949"/>
<rect opacity="0.1" x="662" y="137" width="10" height="10" rx="1" fill="#494949"/>
<rect opacity="0.1" x="534" y="64" width="10" height="10" rx="1" fill="#494949"/>
</svg>
