<svg width="800" height="480" viewBox="0 0 800 480" fill="none" xmlns="http://www.w3.org/2000/svg">
<rect x="172" y="331" width="214" height="40" fill="#494949"/>
<rect x="377" y="420" width="554" height="169" fill="#494949"/>
<rect x="295" y="207" width="50" height="55" fill="#494949"/>
<rect x="-151" y="170" width="230" height="201" fill="#494949"/>
<rect x="156" y="-117" width="83" height="200" fill="#494949"/>
<rect x="156" y="-149" width="189" height="199" fill="#494949"/>
<rect x="504" y="-149" width="146" height="199" fill="#494949"/>
<rect x="726" y="371" width="215" height="184" fill="#494949"/>
<rect x="726" y="-97" width="154" height="212" fill="#494949"/>
<rect x="760" y="176" width="202" height="293" fill="#494949"/>
<rect x="490" y="279" width="147" height="84" fill="#494949"/>
<rect x="-131" y="83" width="174" height="489" fill="#494949"/>
<rect x="437" y="176" width="200" height="50" fill="#494949"/>
<rect x="43" y="374" width="7" height="80" fill="#F08E47"/>
<rect x="240" y="50" width="100" height="7" fill="#7C5DBE"/>
<rect x="242" y="325" width="135" height="6" rx="1" fill="#7C5DBE"/>
<rect x="551" y="170" width="80" height="6" rx="1" fill="#F08E47"/>
<rect x="283" y="213" width="12" height="43" rx="1" fill="#F44545"/>
<rect opacity="0.1" x="239" y="50" width="10" height="10" fill="#494949"/>
<rect opacity="0.1" x="750" y="361" width="10" height="10" rx="2" fill="#494949"/>
<rect opacity="0.1" x="716" y="410" width="10" height="10" rx="2" fill="#494949"/>
<rect opacity="0.1" x="43" y="371" width="10" height="10" fill="#494949"/>
<rect opacity="0.1" x="43" y="160" width="10" height="10" rx="3" fill="#494949"/>
<rect x="691" y="56" width="17" height="17" rx="5" fill="#FFD465" stroke="#E2A734" stroke-width="3"/>
</svg>
