<svg width="800" height="480" viewBox="0 0 800 480" fill="none" xmlns="http://www.w3.org/2000/svg">
<rect x="-114" y="-116" width="233" height="259" fill="#494949"/>
<rect x="-87" y="100" width="222" height="43" fill="#494949"/>
<rect x="213" y="219" width="226" height="106" fill="#494949"/>
<rect x="-87" y="410" width="419" height="166" fill="#494949"/>
<rect x="245" y="446" width="515" height="124" fill="#494949"/>
<rect y="-133" width="367" height="169" fill="#494949"/>
<rect x="213" y="-108" width="418" height="158" fill="#494949"/>
<rect x="721" y="-152" width="220" height="272" fill="#494949"/>
<rect x="213" y="177" width="85" height="148" fill="#494949"/>
<rect x="559" y="-141" width="234" height="182" fill="#494949"/>
<rect x="-93" y="380" width="238" height="183" fill="#494949"/>
<rect x="673" y="219" width="248" height="383" fill="#494949"/>
<rect x="636" y="41" width="80" height="7" fill="#F08E47"/>
<rect x="240" y="50" width="100" height="7" fill="#F6EEE5"/>
<rect x="267" y="325" width="115" height="6" fill="#F6EEE5"/>
<rect opacity="0.1" x="119" y="36" width="10" height="10" fill="#494949"/>
<rect opacity="0.1" x="203" y="36" width="10" height="10" rx="1" fill="#494949"/>
<rect opacity="0.1" x="711" y="41" width="10" height="10" rx="1" fill="#494949"/>
<rect opacity="0.1" x="663" y="436" width="10" height="10" rx="2" fill="#494949"/>
<rect opacity="0.1" x="332" y="436" width="10" height="10" rx="3" fill="#494949"/>
<rect opacity="0.1" x="145" y="400" width="10" height="10" rx="3" fill="#494949"/>
<rect opacity="0.1" x="298" y="209" width="10" height="10" rx="3" fill="#494949"/>
<rect opacity="0.1" x="631" y="41" width="10" height="10" fill="#494949"/>
<rect opacity="0.1" x="119" y="90" width="10" height="10" rx="3" fill="#494949"/>
<rect x="220" y="165" width="70" height="12" rx="1" fill="#F44545"/>
<rect x="729" y="120" width="71" height="12" fill="#F44545"/>
<rect x="355" y="416" width="17" height="17" rx="5" fill="#FFD465" stroke="#E2A734" stroke-width="3"/>
</svg>
