<svg width="800" height="480" viewBox="0 0 800 480" fill="none" xmlns="http://www.w3.org/2000/svg">
<rect x="183" y="-19" width="63" height="221" fill="#494949"/>
<rect x="-117" y="-68" width="188" height="482" fill="#494949"/>
<rect x="317" y="338" width="89" height="241" fill="#494949"/>
<rect x="-71" y="261" width="251" height="306" fill="#494949"/>
<rect x="17" y="430" width="463" height="137" fill="#494949"/>
<rect x="571" y="-121" width="229" height="279" fill="#494949"/>
<rect x="322" y="394" width="569" height="202" fill="#494949"/>
<rect x="276" y="-121" width="491" height="183" fill="#494949"/>
<rect x="-99" y="-162" width="558" height="263" fill="#494949"/>
<rect x="632" y="-134" width="246" height="395" fill="#494949"/>
<rect x="710" y="108" width="168" height="445" fill="#494949"/>
<rect x="406" y="382" width="109" height="12" rx="1" fill="#F44545"/>
<rect x="191" y="202" width="47" height="12" fill="#F44545"/>
<rect opacity="0.1" x="71" y="101" width="10" height="10" fill="#494949"/>
<rect opacity="0.1" x="246" y="101" width="10" height="10" fill="#494949"/>
<rect opacity="0.1" x="173" y="101" width="10" height="10" rx="1" fill="#494949"/>
<rect opacity="0.1" x="71" y="251" width="10" height="10" rx="3" fill="#494949"/>
<rect opacity="0.1" x="180" y="420" width="10" height="10" rx="3" fill="#494949"/>
<rect opacity="0.1" x="406" y="384" width="10" height="10" rx="3" fill="#494949"/>
<rect opacity="0.1" x="307" y="420" width="10" height="10" rx="2" fill="#494949"/>
<rect opacity="0.1" x="700" y="384" width="10" height="10" rx="2" fill="#494949"/>
<rect opacity="0.1" x="700" y="261" width="10" height="10" rx="1" fill="#494949"/>
<rect opacity="0.1" x="622" y="158" width="10" height="10" rx="1" fill="#494949"/>
<rect opacity="0.1" x="561" y="62" width="10" height="10" rx="1" fill="#494949"/>
<rect opacity="0.1" x="459" y="62" width="10" height="10" fill="#494949"/>
</svg>
