<svg width="800" height="480" viewBox="0 0 800 480" fill="none" xmlns="http://www.w3.org/2000/svg">
<rect x="121" y="76" width="100" height="7" fill="#F6EEE5"/>
<rect x="415" y="200" width="6" height="80" rx="1" fill="#7C5DBE"/>
<rect x="508" y="391" width="100" height="7" rx="1" fill="#F6EEE5"/>
<rect x="421" y="189" width="120" height="101" fill="#494949"/>
<rect x="153" y="273" width="186" height="331" fill="#494949"/>
<rect x="-156" y="298" width="495" height="291" fill="#494949"/>
<rect x="-156" y="236" width="197" height="336" fill="#494949"/>
<rect x="-156" y="-157" width="629" height="233" fill="#494949"/>
<rect x="611" y="-122" width="272" height="726" fill="#494949"/>
<rect x="228" y="-165" width="585" height="258" fill="#494949"/>
<rect x="228" y="-109" width="111" height="228" fill="#494949"/>
<rect x="454" y="398" width="482" height="226" fill="#494949"/>
<rect opacity="0.1" x="339" y="93" width="10" height="10" fill="#494949"/>
<rect opacity="0.1" x="218" y="76" width="10" height="10" rx="1" fill="#494949"/>
<rect opacity="0.1" x="601" y="93" width="10" height="10" rx="1" fill="#494949"/>
<rect opacity="0.1" x="601" y="388" width="10" height="10" rx="2" fill="#494949"/>
<rect opacity="0.1" x="143" y="288" width="10" height="10" rx="2" fill="#494949"/>
<rect opacity="0.1" x="41" y="288" width="10" height="10" rx="3" fill="#494949"/>
</svg>
