<svg width="800" height="480" viewBox="0 0 800 480" fill="none" xmlns="http://www.w3.org/2000/svg">
<rect x="-117" y="430" width="1034" height="132" fill="#494949"/>
<rect x="421" y="-113" width="541" height="213" fill="#494949"/>
<rect x="-147" y="-113" width="432" height="227" fill="#494949"/>
<rect x="-123" y="-94" width="240" height="668" fill="#494949"/>
<rect x="683" y="-113" width="222" height="706" fill="#494949"/>
<rect x="240" y="146" width="112" height="108" fill="#494949"/>
<rect x="-178" y="338" width="330" height="293" fill="#494949"/>
<rect x="453" y="269" width="84" height="276" fill="#494949"/>
<rect x="453" y="309" width="495" height="284" fill="#494949"/>
<rect x="240" y="100" width="45" height="59" fill="#494949"/>
<rect x="676" y="209" width="7" height="100" rx="1" fill="#FC954B"/>
<rect x="117" y="114" width="100" height="7" rx="1" fill="#F6EEE5"/>
<rect x="352.01" y="159.01" width="10.98" height="81.98" fill="#FE4A49" stroke="black" stroke-width="0.02"/>
<rect x="285.01" y="64.01" width="10.98" height="81.98" fill="#FE4A49" stroke="black" stroke-width="0.02"/>
<path d="M252 245V200H337" stroke="#676767" stroke-width="4.02" stroke-linecap="round" stroke-linejoin="round"/>
<path d="M262 199.5V105H273" stroke="#676767" stroke-width="4.02" stroke-linecap="round" stroke-linejoin="round"/>
<path d="M245 218L252 218" stroke="#676767" stroke-width="4.02" stroke-linecap="round" stroke-linejoin="round"/>
<rect opacity="0.5" x="240.01" y="254.01" width="20.98" height="83.98" fill="#383838" stroke="black" stroke-width="0.02"/>
<rect x="152.01" y="204.01" width="87.98" height="20.98" rx="0.99" fill="#383838" stroke="black" stroke-width="0.02"/>
<rect x="574" y="100" width="109" height="12" fill="#F44545"/>
<rect x="117" y="260" width="12" height="78" fill="#F44545"/>
<rect x="441" y="338" width="12" height="92" rx="1" fill="#F44545"/>
<rect x="462" y="257" width="65" height="12" rx="1" fill="#F44545"/>
<rect opacity="0.1" x="117" y="114" width="10" height="10" fill="#494949"/>
<rect opacity="0.1" x="230" y="114" width="10" height="10" rx="1" fill="#494949"/>
<rect opacity="0.1" x="117" y="328" width="10" height="10" rx="3" fill="#494949"/>
<rect opacity="0.1" x="152" y="420" width="10" height="10" rx="3" fill="#494949"/>
<rect opacity="0.1" x="537" y="299" width="10" height="10" rx="3" fill="#494949"/>
<rect opacity="0.1" x="285" y="136" width="10" height="10" rx="3" fill="#494949"/>
<rect opacity="0.1" x="673" y="100" width="10" height="10" rx="1" fill="#494949"/>
<rect opacity="0.1" x="673" y="299" width="10" height="10" rx="2" fill="#494949"/>
<rect opacity="0.1" x="443" y="420" width="10" height="10" rx="2" fill="#494949"/>
<rect x="428" y="375" width="17" height="17" rx="5" fill="#FFD465" stroke="#E2A734" stroke-width="3"/>
</svg>
