<svg width="800" height="480" viewBox="0 0 800 480" fill="none" xmlns="http://www.w3.org/2000/svg">
<rect x="132" y="423" width="100" height="7" rx="1" fill="#F18A40"/>
<rect x="365" y="423" width="100" height="7" rx="1" fill="#F18A40"/>
<rect x="505" y="165" width="6" height="100" fill="#F18A40"/>
<rect y="430" width="505" height="157" fill="#494949"/>
<rect x="-122" y="269" width="218" height="318" fill="#494949"/>
<rect x="130" y="-118" width="278" height="158" fill="#494949"/>
<rect x="232" y="-103" width="129" height="218" fill="#494949"/>
<rect x="486" y="-87" width="409" height="127" fill="#494949"/>
<rect x="467" y="104" width="38" height="210" fill="#494949"/>
<rect x="659" y="274" width="40" height="68" fill="#494949"/>
<rect x="689" y="-103" width="243" height="268" fill="#494949"/>
<rect x="760" y="-76" width="123" height="634" fill="#494949"/>
<rect x="467" y="274" width="232" height="40" fill="#494949"/>
<rect opacity="0.1" x="222" y="40" width="10" height="10" rx="1" fill="#494949"/>
<rect opacity="0.1" x="96" y="420" width="10" height="10" rx="3" fill="#494949"/>
<rect opacity="0.1" x="361" y="40" width="10" height="10" fill="#494949"/>
<rect opacity="0.1" x="505" y="264" width="10" height="10" rx="3" fill="#494949"/>
<rect opacity="0.1" x="750" y="165" width="10" height="10" rx="1" fill="#494949"/>
<rect opacity="0.1" x="679" y="40" width="10" height="10" rx="1" fill="#494949"/>
<rect opacity="0.1" x="649" y="314" width="10" height="10" rx="1" fill="#494949"/>
<rect x="659" y="241" width="17" height="17" rx="5" fill="#FFD465" stroke="#E2A734" stroke-width="3"/>
</svg>
