<svg width="800" height="480" viewBox="0 0 800 480" fill="none" xmlns="http://www.w3.org/2000/svg">
<rect x="-139" y="348" width="449" height="279" fill="#494949"/>
<rect x="-114" y="313" width="335" height="287" fill="#494949"/>
<rect x="-139" y="-111" width="285" height="705" fill="#494949"/>
<rect x="423" y="-162" width="413" height="225" fill="#494949"/>
<rect x="-201" y="-132" width="950" height="172" fill="#494949"/>
<rect x="-129" y="-132" width="291" height="289" fill="#494949"/>
<rect x="221" y="103" width="89" height="54" fill="#494949"/>
<rect x="619" y="131" width="423" height="485" fill="#494949"/>
<rect x="571" y="-118" width="372" height="399" fill="#494949"/>
<rect x="534" y="-118" width="352" height="213" fill="#494949"/>
<rect x="473" y="205" width="363" height="76" fill="#494949"/>
<rect x="278" y="452" width="351" height="102" fill="#494949"/>
<rect y="396" width="917" height="198" fill="#494949"/>
<rect x="441" y="63" width="90" height="7" fill="#F6EEE5"/>
<rect x="311" y="389" width="80" height="7" rx="1" fill="#FC954B"/>
<rect x="612" y="316" width="7" height="80" rx="1" fill="#F6EEE5"/>
<rect x="146" y="205" width="12" height="108" fill="#F44545"/>
<rect x="349" y="40" width="74" height="12" fill="#F44545"/>
<rect x="560.005" y="123.005" width="10.99" height="81.99" rx="0.995" fill="#FE4A49" stroke="black" stroke-width="0.01"/>
<path d="M484 267.5V251H594V166H582.5" stroke="#676767" stroke-width="4.01" stroke-linecap="round" stroke-linejoin="round"/>
<rect opacity="0.5" x="473.005" y="281.005" width="20.99" height="66.99" fill="#383838" stroke="black" stroke-width="0.01"/>
<rect opacity="0.1" x="162" y="40" width="10" height="10" fill="#494949"/>
<rect opacity="0.1" x="413" y="40" width="10" height="10" rx="1" fill="#494949"/>
<rect opacity="0.1" x="524" y="63" width="10" height="10" rx="1" fill="#494949"/>
<rect opacity="0.1" x="561" y="95" width="10" height="10" rx="1" fill="#494949"/>
<rect opacity="0.1" x="561" y="195" width="10" height="10" rx="2" fill="#494949"/>
<rect opacity="0.1" x="609" y="281" width="10" height="10" rx="1" fill="#494949"/>
<rect opacity="0.1" x="609" y="386" width="10" height="10" rx="2" fill="#494949"/>
<rect opacity="0.1" x="310" y="386" width="10" height="10" rx="3" fill="#494949"/>
<rect opacity="0.1" x="221" y="338" width="10" height="10" rx="3" fill="#494949"/>
<rect opacity="0.1" x="146" y="303" width="10" height="10" rx="3" fill="#494949"/>
<rect opacity="0.1" x="146" y="157" width="10" height="10" fill="#494949"/>
</svg>
