<svg width="800" height="480" viewBox="0 0 800 480" fill="none" xmlns="http://www.w3.org/2000/svg">
<rect x="-15" y="-115" width="588" height="216" fill="#494949"/>
<rect x="402" y="-100" width="182" height="250" fill="#494949"/>
<rect x="241" y="430" width="629" height="148" fill="#494949"/>
<rect x="261" y="278" width="50" height="202" fill="#494949"/>
<rect x="550" y="244" width="108" height="106" fill="#494949"/>
<rect x="343" y="-131" width="548" height="210" fill="#494949"/>
<rect x="-111" y="-66" width="191" height="612" fill="#494949"/>
<rect x="750" y="-66" width="154" height="612" fill="#494949"/>
<rect x="-95" y="310" width="406" height="268" fill="#494949"/>
<rect x="80" y="206" width="7" height="100" fill="#F6EEE5"/>
<rect x="261" y="101" width="100" height="7" fill="#F6EEE5"/>
<rect x="311" y="350" width="6" height="80" fill="#7C5DBE"/>
<rect x="80" y="101" width="100" height="7" fill="#7C5DBE"/>
<rect x="390" y="101" width="12" height="41" fill="#F44545"/>
<rect opacity="0.1" x="80" y="101" width="10" height="10" fill="#494949"/>
<rect opacity="0.1" x="392" y="101" width="10" height="10" rx="1" fill="#494949"/>
<rect opacity="0.1" x="740" y="79" width="10" height="10" rx="1" fill="#494949"/>
<rect opacity="0.1" x="584" y="79" width="10" height="10" fill="#494949"/>
<rect opacity="0.1" x="80" y="300" width="10" height="10" rx="3" fill="#494949"/>
<rect opacity="0.1" x="311" y="420" width="10" height="10" rx="3" fill="#494949"/>
<rect opacity="0.1" x="251" y="300" width="10" height="10" rx="2" fill="#494949"/>
<rect opacity="0.1" x="740" y="420" width="10" height="10" rx="2" fill="#494949"/>
<rect x="277" y="126" width="17" height="17" rx="5" fill="#FFD465" stroke="#F0B542" stroke-width="3"/>
<rect x="525" y="155" width="17" height="17" rx="5" fill="#FFD465" stroke="#F0B542" stroke-width="3"/>
</svg>
