<svg width="800" height="480" viewBox="0 0 800 480" fill="none" xmlns="http://www.w3.org/2000/svg">
<rect x="450" y="151" width="137" height="173" fill="#494949"/>
<rect x="467" y="-64" width="50" height="167" fill="#494949"/>
<rect x="245" y="-83" width="607" height="133" fill="#494949"/>
<rect x="-117" y="400" width="995" height="156" fill="#494949"/>
<rect x="-117" y="226" width="414" height="355" fill="#494949"/>
<rect x="705" y="-110" width="173" height="677" fill="#494949"/>
<rect x="-105" y="114" width="194" height="262" fill="#494949"/>
<rect x="444" y="153" width="6" height="71" rx="1" fill="#7A51D3"/>
<rect x="297" y="50" width="100" height="7" fill="#7A51D3"/>
<rect x="89" y="120" width="7" height="100" rx="1" fill="#F6EEE5"/>
<rect x="587" y="161" width="12" height="156" fill="#F44545"/>
<rect x="438" y="224" width="12" height="90" rx="1" fill="#F44545"/>
<rect x="233" y="1" width="12" height="44" rx="1" fill="#F44545"/>
<rect x="457" y="324" width="123" height="12" fill="#F44545"/>
<rect x="470" y="103" width="44" height="12" fill="#F44545"/>
<rect opacity="0.1" x="517" y="50" width="10" height="10" fill="#494949"/>
<rect opacity="0.1" x="457" y="50" width="10" height="10" rx="1" fill="#494949"/>
<rect opacity="0.1" x="695" y="50" width="10" height="10" rx="1" fill="#494949"/>
<rect opacity="0.1" x="695" y="390" width="10" height="10" rx="2" fill="#494949"/>
<rect opacity="0.1" x="297" y="390" width="10" height="10" rx="3" fill="#494949"/>
<rect opacity="0.1" x="89" y="216" width="10" height="10" rx="3" fill="#494949"/>
</svg>
