<svg width="800" height="480" viewBox="0 0 800 480" fill="none" xmlns="http://www.w3.org/2000/svg">
<rect x="-116" y="430" width="1032" height="194" fill="#494949"/>
<rect x="-110" y="-99" width="458" height="199" fill="#494949"/>
<rect x="-134" y="-91" width="290" height="241" fill="#494949"/>
<rect x="-116" y="-99" width="220" height="678" fill="#494949"/>
<rect x="1" y="291" width="155" height="189" fill="#494949"/>
<rect x="-75" y="-99" width="658" height="149" fill="#494949"/>
<rect x="683" y="-91" width="398" height="662" fill="#494949"/>
<rect x="583" y="344" width="449" height="287" fill="#494949"/>
<rect x="-110" y="291" width="530" height="312" fill="#494949"/>
<rect x="420" y="137" width="83" height="72" fill="#494949"/>
<rect x="300" y="284" width="80" height="7" fill="#F6EEE5"/>
<rect x="676" y="209" width="7" height="100" rx="1" fill="#7C5DBE"/>
<rect x="104.005" y="150.005" width="11.99" height="140.99" fill="#F44545" stroke="black" stroke-width="0.01"/>
<rect opacity="0.1" x="156" y="100" width="10" height="10" fill="#494949"/>
<rect opacity="0.1" x="104" y="150" width="10" height="10" fill="#494949"/>
<rect opacity="0.1" x="348" y="50" width="10" height="10" fill="#494949"/>
<rect opacity="0.1" x="673" y="334" width="10" height="10" rx="2" fill="#494949"/>
<rect opacity="0.1" x="573" y="420" width="10" height="10" rx="2" fill="#494949"/>
<rect opacity="0.1" x="420" y="420" width="10" height="10" rx="3" fill="#494949"/>
<rect opacity="0.1" x="104" y="281" width="10" height="10" rx="3" fill="#494949"/>
<rect x="453" y="108" width="17" height="17" rx="5" fill="#FFD465" stroke="#E2A734" stroke-width="3"/>
</svg>
