<svg width="800" height="480" viewBox="0 0 800 480" fill="none" xmlns="http://www.w3.org/2000/svg">
<rect x="533" y="-57" width="357" height="626" fill="#494949"/>
<rect x="255" y="134" width="392" height="90" fill="#494949"/>
<rect x="83" y="436" width="314" height="146" fill="#494949"/>
<rect x="-79" y="69" width="169" height="480" fill="#494949"/>
<rect x="255" y="134" width="55" height="165" fill="#494949"/>
<rect x="472" y="134" width="438" height="415" fill="#494949"/>
<rect x="-56" y="-91" width="187" height="335" fill="#494949"/>
<rect x="-92" y="362" width="402" height="207" fill="#494949"/>
<rect x="-72" y="-97" width="872" height="147" fill="#494949"/>
<rect x="249" y="190" width="6" height="100" fill="#F6EEE5"/>
<rect x="466" y="371" width="6" height="100" fill="#F6EEE5"/>
<rect x="527" y="52" width="6" height="80" rx="1" fill="#7C5DBE"/>
<rect opacity="0.1" x="131" y="50" width="10" height="10" fill="#494949"/>
<rect opacity="0.1" x="523" y="50" width="10" height="10" rx="1" fill="#494949"/>
<rect opacity="0.1" x="523" y="124" width="10" height="10" rx="2" fill="#494949"/>
<rect opacity="0.1" x="90" y="244" width="10" height="10" fill="#494949"/>
<rect opacity="0.1" x="90" y="352" width="10" height="10" rx="3" fill="#494949"/>
<rect opacity="0.1" x="310" y="426" width="10" height="10" rx="3" fill="#494949"/>
<rect opacity="0.1" x="310" y="224" width="10" height="10" fill="#494949"/>
<rect opacity="0.1" x="462" y="224" width="10" height="10" rx="1" fill="#494949"/>
<rect x="138" y="150" width="17" height="17" rx="5" fill="#FFD465" stroke="#E2A734" stroke-width="3"/>
</svg>
