<svg width="800" height="480" viewBox="0 0 800 480" fill="none" xmlns="http://www.w3.org/2000/svg">
<rect x="249" y="190" width="6" height="100" fill="#F08E47"/>
<rect x="466" y="371" width="6" height="100" fill="#F08E47"/>
<rect x="626" y="284" width="100" height="6" rx="1" fill="#7C5DBE"/>
<rect x="614" y="290" width="304" height="296" fill="#494949"/>
<rect x="416" y="242" width="50" height="354" fill="#494949"/>
<rect x="416" y="-132" width="198" height="322" fill="#494949"/>
<rect x="-25" y="293" width="304" height="263" fill="#494949"/>
<rect x="91" y="-132" width="471" height="218" fill="#494949"/>
<rect x="-99" y="-106" width="348" height="692" fill="#494949"/>
<rect x="449" y="-154" width="418" height="204" fill="#494949"/>
<rect x="432" y="198" width="17" height="17" rx="5" fill="#FFD465" stroke="#F0B542" stroke-width="3"/>
<rect x="278" y="94" width="17" height="17" rx="5" fill="#FFD465" stroke="#F0B542" stroke-width="3"/>
<rect opacity="0.1" x="249" y="86" width="10" height="10" fill="#494949"/>
<rect opacity="0.1" x="406" y="86" width="10" height="10" rx="1" fill="#494949"/>
<rect opacity="0.1" x="614" y="50" width="10" height="10" fill="#494949"/>
<rect opacity="0.1" x="249" y="283" width="10" height="10" rx="3" fill="#494949"/>
</svg>
