<svg width="800" height="480" viewBox="0 0 800 480" fill="none" xmlns="http://www.w3.org/2000/svg">
<rect x="602" y="345" width="272" height="232" fill="#494949"/>
<rect x="-94" y="-136" width="815" height="219" fill="#494949"/>
<rect x="362" y="-92" width="522" height="217" fill="#494949"/>
<rect x="-77" y="383" width="439" height="246" fill="#494949"/>
<rect x="362" y="-83" width="79" height="326" fill="#494949"/>
<rect x="-110" y="-92" width="222" height="197" fill="#494949"/>
<rect x="223" y="-92" width="419" height="197" fill="#494949"/>
<rect x="-54" y="275" width="245" height="286" fill="#494949"/>
<rect x="-65" y="345" width="348" height="244" fill="#494949"/>
<rect x="-142" y="-92" width="221" height="664" fill="#494949"/>
<rect x="746" y="-97" width="193" height="674" fill="#494949"/>
<rect x="-65" y="416" width="959" height="145" fill="#494949"/>
<rect x="739" y="175" width="7" height="100" rx="1" fill="#F6EEE5"/>
<rect x="79" y="263" width="99" height="12" rx="1" fill="#F44545"/>
<rect opacity="0.1" x="79" y="105" width="10" height="10" fill="#494949"/>
<rect opacity="0.1" x="79" y="265" width="10" height="10" rx="3" fill="#494949"/>
<rect opacity="0.1" x="191" y="335" width="10" height="10" rx="3" fill="#494949"/>
<rect opacity="0.1" x="283" y="373" width="10" height="10" rx="3" fill="#494949"/>
<rect opacity="0.1" x="362" y="406" width="10" height="10" rx="3" fill="#494949"/>
<rect opacity="0.1" x="592" y="406" width="10" height="10" rx="2" fill="#494949"/>
<rect opacity="0.1" x="736" y="335" width="10" height="10" rx="2" fill="#494949"/>
<rect opacity="0.1" x="112" y="83" width="10" height="10" fill="#494949"/>
<rect opacity="0.1" x="213" y="83" width="10" height="10" rx="1" fill="#494949"/>
<rect opacity="0.1" x="352" y="105" width="10" height="10" rx="1" fill="#494949"/>
<rect opacity="0.1" x="736" y="125" width="10" height="10" rx="1" fill="#494949"/>
<rect opacity="0.1" x="441" y="125" width="10" height="10" fill="#494949"/>
<rect x="198" y="112" width="17" height="17" rx="5" fill="#FFD465" stroke="#E2A734" stroke-width="3"/>
</svg>
