<svg width="800" height="480" viewBox="0 0 800 480" fill="none" xmlns="http://www.w3.org/2000/svg">
<rect x="760" width="130" height="480" fill="#494949"/>
<rect x="-107" y="268" width="260" height="301" fill="#494949"/>
<rect x="-102" y="9" width="192" height="386" fill="#494949"/>
<rect x="-102" y="-119" width="255" height="262" fill="#494949"/>
<rect y="-108" width="800" height="148" fill="#494949"/>
<rect y="440" width="467" height="129" fill="#494949"/>
<rect x="414" y="367" width="154" height="145" fill="#494949"/>
<rect x="674" y="307" width="236" height="282" fill="#494949"/>
<rect x="414" y="398" width="386" height="163" fill="#494949"/>
<rect x="498" y="268" width="70" height="212" fill="#494949"/>
<rect x="340" y="-135" width="634" height="362" fill="#494949"/>
<rect x="333" y="145" width="7" height="80" rx="1" fill="#F08E47"/>
<rect x="350" y="227" width="100" height="7" fill="#F08E47"/>
<rect x="416" y="360" width="80" height="7" rx="1" fill="#7A51D3"/>
<rect x="753" y="227" width="7" height="80" rx="1" fill="#7A51D3"/>
<rect x="568" y="227" width="52" height="12" fill="#F44545"/>
</svg>
