<svg width="800" height="480" viewBox="0 0 800 480" fill="none" xmlns="http://www.w3.org/2000/svg">
<rect x="274" y="431" width="616" height="128" fill="#494949"/>
<rect x="383" y="346" width="195" height="242" fill="#494949"/>
<rect x="383" y="298" width="112" height="290" fill="#494949"/>
<rect x="317" y="383" width="261" height="188" fill="#494949"/>
<rect x="-241" y="202" width="526" height="96" fill="#494949"/>
<rect x="351" y="120" width="539" height="50" fill="#494949"/>
<rect x="578" y="120" width="323" height="101" fill="#494949"/>
<rect x="517" y="-91" width="397" height="131" fill="#494949"/>
<rect x="-125" y="-102" width="383" height="142" fill="#494949"/>
<rect x="-98" y="-114" width="308" height="196" fill="#494949"/>
<rect x="-125" y="162" width="287" height="136" fill="#494949"/>
<rect x="-87" y="162" width="199" height="426" fill="#494949"/>
<rect x="-72" y="-102" width="147" height="661" fill="#494949"/>
<rect x="697" y="389" width="193" height="170" fill="#494949"/>
<rect x="598" y="-114" width="330" height="335" fill="#494949"/>
<rect x="740" y="-91" width="150" height="662" fill="#494949"/>
<rect x="733" y="309" width="7" height="80" rx="1" fill="#F08E47"/>
<rect x="112" y="351" width="7" height="80" fill="#F08E47"/>
<rect x="162" y="196" width="80" height="6" rx="1" fill="#7C5DBE"/>
<rect x="75" y="82" width="7" height="80" fill="#7C5DBE"/>
<rect x="591" y="40" width="7" height="80" rx="1" fill="#F08E47"/>
<rect x="391" y="286" width="95" height="12" rx="1" fill="#F44545"/>
<rect opacity="0.1" x="75" y="82" width="10" height="10" fill="#494949"/>
<rect opacity="0.1" x="112" y="298" width="10" height="10" fill="#494949"/>
<rect opacity="0.1" x="210" y="40" width="10" height="10" fill="#494949"/>
<rect opacity="0.1" x="588" y="40" width="10" height="10" rx="1" fill="#494949"/>
<rect opacity="0.1" x="588" y="110" width="10" height="10" rx="2" fill="#494949"/>
<rect opacity="0.1" x="568" y="170" width="10" height="10" rx="1" fill="#494949"/>
<rect opacity="0.1" x="730" y="221" width="10" height="10" rx="1" fill="#494949"/>
<rect opacity="0.1" x="730" y="379" width="10" height="10" rx="2" fill="#494949"/>
<rect opacity="0.1" x="687" y="421" width="10" height="10" rx="2" fill="#494949"/>
<rect opacity="0.1" x="373" y="373" width="10" height="10" rx="2" fill="#494949"/>
<rect opacity="0.1" x="307" y="421" width="10" height="10" rx="2" fill="#494949"/>
<rect opacity="0.1" x="578" y="421" width="10" height="10" rx="3" fill="#494949"/>
<rect opacity="0.1" x="75" y="152" width="10" height="10" rx="3" fill="#494949"/>
<rect opacity="0.1" x="162" y="192" width="10" height="10" rx="3" fill="#494949"/>
<rect opacity="0.1" x="495" y="336" width="10" height="10" rx="3" fill="#494949"/>
<rect x="521" y="48" width="17" height="17" rx="5" fill="#FFD465" stroke="#E2A734" stroke-width="3"/>
</svg>
