<svg width="800" height="480" viewBox="0 0 800 480" fill="none" xmlns="http://www.w3.org/2000/svg">
<rect x="-88" y="410" width="976" height="169" fill="#494949"/>
<rect x="633" y="231" width="195" height="363" fill="#494949"/>
<rect x="404" y="231" width="132" height="67" fill="#494949"/>
<rect x="197" y="-104" width="677" height="144" fill="#494949"/>
<rect x="208" y="-65" width="272" height="205" fill="#494949"/>
<rect x="703" y="-104" width="247" height="658" fill="#494949"/>
<rect x="-142" y="-138" width="471" height="754" fill="#494949"/>
<rect x="633" y="-112" width="179" height="252" fill="#494949"/>
<rect x="329" y="186" width="12" height="150" fill="#F44545"/>
<rect opacity="0.1" x="480" y="40" width="10" height="10" fill="#494949"/>
<rect opacity="0.1" x="329" y="140" width="10" height="10" fill="#494949"/>
<rect opacity="0.1" x="693" y="140" width="10" height="10" rx="1" fill="#494949"/>
<rect opacity="0.1" x="623" y="40" width="10" height="10" rx="1" fill="#494949"/>
<rect opacity="0.1" x="693" y="221" width="10" height="10" rx="2" fill="#494949"/>
<rect opacity="0.1" x="623" y="400" width="10" height="10" rx="2" fill="#494949"/>
<rect opacity="0.1" x="329" y="400" width="10" height="10" rx="3" fill="#494949"/>
<rect x="674" y="148" width="17" height="17" rx="5" fill="#FFD465" stroke="#E2A734" stroke-width="3"/>
<rect x="336" y="252" width="17" height="17" rx="5" fill="#FFD465" stroke="#E2A734" stroke-width="3"/>
</svg>
