<svg width="800" height="480" viewBox="0 0 800 480" fill="none" xmlns="http://www.w3.org/2000/svg">
<rect x="261" y="368" width="539" height="196" fill="#494949"/>
<rect x="388" y="308" width="214" height="243" fill="#494949"/>
<rect x="-107" y="408" width="580" height="169" fill="#494949"/>
<rect x="-121" y="-63" width="171" height="454" fill="#494949"/>
<rect x="-107" y="213" width="203" height="356" fill="#494949"/>
<rect x="215" y="130" width="106" height="48" fill="#494949"/>
<rect x="435" y="258" width="628" height="266" fill="#494949"/>
<rect x="-70" y="-80" width="166" height="120" fill="#494949"/>
<rect x="184" y="-138" width="257" height="178" fill="#494949"/>
<rect x="321" y="-157" width="330" height="199" fill="#494949"/>
<rect x="321" y="-131" width="82" height="223" fill="#494949"/>
<rect x="561" y="-109" width="408" height="185" fill="#494949"/>
<rect x="701" y="165" width="231" height="226" fill="#494949"/>
<rect x="729" y="-99" width="315" height="452" fill="#494949"/>
<rect x="273" y="361" width="80" height="7" rx="1" fill="#7A51D3"/>
<rect x="96" y="328" width="7" height="80" fill="#F08E47"/>
<rect x="694" y="178" width="7" height="80" rx="1" fill="#F08E47"/>
<rect x="50" y="130" width="7" height="80" fill="#F08E47"/>
<rect x="454" y="246" width="70" height="12" rx="1" fill="#F44545"/>
<rect x="403" y="42" width="12" height="34" fill="#F44545"/>
<rect x="321" y="137" width="12" height="34" fill="#F44545"/>
<rect opacity="0.1" x="50" y="40" width="10" height="10" fill="#494949"/>
<rect opacity="0.1" x="311" y="40" width="10" height="10" rx="1" fill="#494949"/>
<rect opacity="0.1" x="50" y="203" width="10" height="10" rx="3" fill="#494949"/>
<rect opacity="0.1" x="96" y="398" width="10" height="10" rx="3" fill="#494949"/>
<rect opacity="0.1" x="378" y="358" width="10" height="10" rx="2" fill="#494949"/>
<rect opacity="0.1" x="251" y="398" width="10" height="10" rx="2" fill="#494949"/>
<rect opacity="0.1" x="425" y="298" width="10" height="10" rx="2" fill="#494949"/>
<rect opacity="0.1" x="691" y="248" width="10" height="10" rx="2" fill="#494949"/>
<rect opacity="0.1" x="719" y="155" width="10" height="10" rx="2" fill="#494949"/>
<rect opacity="0.1" x="719" y="76" width="10" height="10" rx="1" fill="#494949"/>
<rect opacity="0.1" x="551" y="42" width="10" height="10" rx="1" fill="#494949"/>
<rect opacity="0.1" x="403" y="42" width="10" height="10" fill="#494949"/>
<rect x="154" y="146" width="17" height="17" rx="5" fill="#FFD465" stroke="#F0B542" stroke-width="3"/>
<rect x="357" y="336" width="17" height="17" rx="5" fill="#FFD465" stroke="#F0B542" stroke-width="3"/>
</svg>
