<svg width="800" height="480" viewBox="0 0 800 480" fill="none" xmlns="http://www.w3.org/2000/svg">
<rect x="242" y="398" width="735" height="250" fill="#494949"/>
<rect x="147" y="126" width="110" height="70" fill="#494949"/>
<rect x="162" y="-153" width="638" height="193" fill="#494949"/>
<rect x="-88" y="-101" width="203" height="183" fill="#494949"/>
<rect x="-88" y="398" width="163" height="176" fill="#494949"/>
<rect x="-80" y="431" width="960" height="181" fill="#494949"/>
<rect x="-131" y="-88" width="179" height="656" fill="#494949"/>
<rect x="-41" y="253" width="188" height="35" fill="#494949"/>
<rect x="379" y="221" width="100" height="93" fill="#494949"/>
<rect x="242" y="346" width="60" height="203" fill="#494949"/>
<rect x="-106" y="-101" width="181" height="389" fill="#494949"/>
<rect x="379" y="-145" width="161" height="299" fill="#494949"/>
<rect x="394" y="-145" width="538" height="277" fill="#494949"/>
<rect x="532" y="346" width="445" height="287" fill="#494949"/>
<rect x="711" y="-115" width="278" height="710" fill="#494949"/>
<rect x="162" y="196" width="80" height="6" fill="#F6EEE5"/>
<rect x="75" y="82" width="7" height="80" fill="#F6EEE5"/>
<rect x="373" y="40" width="6" height="80" fill="#F18A40"/>
<rect x="540" y="340" width="80" height="6" fill="#F18A40"/>
<rect x="230" y="398" width="12" height="33" rx="1" fill="#F44545"/>
<rect opacity="0.1" x="75" y="82" width="10" height="10" fill="#494949"/>
<rect opacity="0.1" x="48" y="288" width="10" height="10" fill="#494949"/>
<rect opacity="0.1" x="369" y="40" width="10" height="10" rx="1" fill="#494949"/>
<rect opacity="0.1" x="701" y="132" width="10" height="10" rx="1" fill="#494949"/>
<rect opacity="0.1" x="701" y="336" width="10" height="10" rx="2" fill="#494949"/>
<rect opacity="0.1" x="522" y="388" width="10" height="10" rx="2" fill="#494949"/>
<rect opacity="0.1" x="232" y="421" width="10" height="10" rx="2" fill="#494949"/>
<rect opacity="0.1" x="302" y="388" width="10" height="10" rx="3" fill="#494949"/>
<rect opacity="0.1" x="75" y="421" width="10" height="10" rx="3" fill="#494949"/>
<rect opacity="0.1" x="48" y="388" width="10" height="10" rx="3" fill="#494949"/>
<rect opacity="0.1" x="75" y="243" width="10" height="10" rx="3" fill="#494949"/>
<rect opacity="0.1" x="540" y="132" width="10" height="10" fill="#494949"/>
<rect x="169" y="262" width="17" height="17" rx="5" fill="#FFD465" stroke="#E2A734" stroke-width="3"/>
</svg>
