<svg width="800" height="480" viewBox="0 0 800 480" fill="none" xmlns="http://www.w3.org/2000/svg">
<rect x="40" y="217" width="7" height="80" fill="#7A51D3"/>
<rect x="137" y="40" width="95" height="7" fill="#7A51D3"/>
<rect x="127" y="430" width="485" height="193" fill="#494949"/>
<rect x="234" y="267" width="128" height="310" fill="#494949"/>
<rect x="234" y="-114" width="128" height="276" fill="#494949"/>
<rect x="-131" y="162" width="171" height="190" fill="#494949"/>
<rect x="468" y="-114" width="144" height="277" fill="#494949"/>
<rect x="127" y="-106" width="458" height="146" fill="#494949"/>
<rect x="511" y="-106" width="348" height="692" fill="#494949"/>
<rect x="468" y="267" width="144" height="284" fill="#494949"/>
<rect opacity="0.1" x="224" y="40" width="10" height="10" rx="1" fill="#494949"/>
<rect opacity="0.1" x="362" y="40" width="10" height="10" fill="#494949"/>
<rect opacity="0.1" x="501" y="163" width="10" height="10" rx="1" fill="#494949"/>
<rect opacity="0.1" x="458" y="40" width="10" height="10" rx="1" fill="#494949"/>
<rect opacity="0.1" x="501" y="257" width="10" height="10" rx="2" fill="#494949"/>
<rect opacity="0.1" x="458" y="420" width="10" height="10" rx="2" fill="#494949"/>
<rect opacity="0.1" x="224" y="420" width="10" height="10" rx="2" fill="#494949"/>
<rect opacity="0.1" x="362" y="420" width="10" height="10" rx="3" fill="#494949"/>
</svg>
