<svg width="800" height="480" viewBox="0 0 800 480" fill="none" xmlns="http://www.w3.org/2000/svg">
<rect x="-173" y="-144" width="343" height="255" fill="#494949"/>
<rect x="-173" y="-130" width="237" height="384" fill="#494949"/>
<rect x="-173" y="35" width="205" height="357" fill="#494949"/>
<rect x="-148" y="-153" width="360" height="216" fill="#494949"/>
<rect x="-106" y="440" width="1012" height="154" fill="#494949"/>
<rect x="615" y="201" width="331" height="425" fill="#494949"/>
<rect x="135" y="307" width="216" height="60" fill="#494949"/>
<rect x="292" y="259" width="59" height="108" fill="#494949"/>
<rect x="422" y="307" width="86" height="275" fill="#494949"/>
<rect x="422" y="342" width="492" height="265" fill="#494949"/>
<rect x="-136" y="-159" width="1072" height="199" fill="#494949"/>
<rect x="540" y="-159" width="389" height="222" fill="#494949"/>
<rect x="-126" y="344" width="190" height="266" fill="#494949"/>
<rect x="720" y="-130" width="220" height="740" fill="#494949"/>
<rect x="713" y="63" width="7" height="80" fill="#F6EEE5"/>
<rect x="609" y="227" width="6" height="80" fill="#F6EEE5"/>
<rect x="260" y="40" width="80" height="7" fill="#7C5DBE"/>
<rect x="212" y="295" width="80" height="12" rx="1" fill="#F44545"/>
<rect opacity="0.1" x="64" y="111" width="10" height="10" fill="#494949"/>
<rect opacity="0.1" x="32" y="254" width="10" height="10" fill="#494949"/>
<rect opacity="0.1" x="170" y="63" width="10" height="10" fill="#494949"/>
<rect opacity="0.1" x="212" y="40" width="10" height="10" fill="#494949"/>
<rect opacity="0.1" x="530" y="40" width="10" height="10" rx="1" fill="#494949"/>
<rect opacity="0.1" x="710" y="63" width="10" height="10" rx="1" fill="#494949"/>
<rect opacity="0.1" x="710" y="191" width="10" height="10" rx="2" fill="#494949"/>
<rect opacity="0.1" x="605" y="332" width="10" height="10" rx="2" fill="#494949"/>
<rect opacity="0.1" x="508" y="332" width="10" height="10" rx="3" fill="#494949"/>
<rect opacity="0.1" x="64" y="430" width="10" height="10" rx="3" fill="#494949"/>
<rect opacity="0.1" x="32" y="334" width="10" height="10" rx="3" fill="#494949"/>
<rect opacity="0.1" x="412" y="430" width="10" height="10" rx="2" fill="#494949"/>
<rect opacity="0.1" x="282" y="297" width="10" height="10" rx="2" fill="#494949"/>
<rect x="109" y="319" width="17" height="17" rx="5" fill="#FFD465" stroke="#E2A734" stroke-width="3"/>
</svg>
