<svg width="800" height="480" viewBox="0 0 800 480" fill="none" xmlns="http://www.w3.org/2000/svg">
<rect x="121" y="76" width="100" height="7" fill="#F18A40"/>
<rect x="508" y="391" width="100" height="7" rx="1" fill="#F18A40"/>
<rect x="121" y="243" width="7" height="100" fill="#7C5DBE"/>
<rect x="339" y="-163" width="511" height="300" fill="#494949"/>
<rect x="339" y="302" width="121" height="333" fill="#494949"/>
<rect x="339" y="-156" width="121" height="325" fill="#494949"/>
<rect x="60" y="169" width="109" height="74" fill="#494949"/>
<rect x="-150" y="-119" width="271" height="688" fill="#494949"/>
<rect x="-112" y="343" width="620" height="251" fill="#494949"/>
<rect x="-156" y="-168" width="1074" height="244" fill="#494949"/>
<rect x="720" y="-76" width="163" height="634" fill="#494949"/>
<rect x="671" y="-120" width="219" height="296" fill="#494949"/>
<rect x="196" y="398" width="749" height="196" fill="#494949"/>
<rect x="498" y="137" width="71" height="12" fill="#F44545"/>
<rect x="169" y="176" width="12" height="60" fill="#F44545"/>
<rect opacity="0.1" x="121" y="76" width="10" height="10" fill="#494949"/>
<rect opacity="0.1" x="121" y="243" width="10" height="10" fill="#494949"/>
<rect opacity="0.1" x="460" y="137" width="10" height="10" fill="#494949"/>
<rect opacity="0.1" x="329" y="76" width="10" height="10" rx="1" fill="#494949"/>
<rect opacity="0.1" x="661" y="137" width="10" height="10" rx="1" fill="#494949"/>
<rect opacity="0.1" x="710" y="176" width="10" height="10" rx="1" fill="#494949"/>
<rect opacity="0.1" x="121" y="159" width="10" height="10" rx="3" fill="#494949"/>
<rect opacity="0.1" x="121" y="333" width="10" height="10" rx="3" fill="#494949"/>
<rect opacity="0.1" x="460" y="333" width="10" height="10" rx="3" fill="#494949"/>
<rect opacity="0.1" x="508" y="388" width="10" height="10" rx="3" fill="#494949"/>
<rect opacity="0.1" x="329" y="333" width="10" height="10" rx="2" fill="#494949"/>
<rect opacity="0.1" x="710" y="388" width="10" height="10" rx="2" fill="#494949"/>
<rect x="525" y="145" width="17" height="17" rx="5" fill="#FFD465" stroke="#E2A734" stroke-width="3"/>
<rect x="391" y="278" width="17" height="17" rx="5" fill="#FFD465" stroke="#E2A734" stroke-width="3"/>
</svg>
