<svg width="800" height="480" viewBox="0 0 800 480" fill="none" xmlns="http://www.w3.org/2000/svg">
<rect x="760" y="134" width="185" height="134" fill="#494949"/>
<rect x="170" y="440" width="630" height="145" fill="#494949"/>
<rect x="390" y="353" width="520" height="213" fill="#494949"/>
<rect x="-82" y="-186" width="928" height="236" fill="#494949"/>
<rect x="390" y="181" width="277" height="40" fill="#494949"/>
<rect x="390" y="114" width="50" height="176" fill="#494949"/>
<rect x="170" y="185" width="100" height="202" fill="#494949"/>
<rect x="-91" y="-135" width="191" height="260" fill="#494949"/>
<rect x="-182" y="260" width="409" height="127" fill="#494949"/>
<rect x="440" y="221" width="224" height="12" fill="#F44545"/>
<rect x="667" y="184" width="12" height="34" fill="#F44545"/>
<rect x="753" y="143" width="7" height="117" rx="1" fill="#F6EEE5"/>
<rect x="233" y="433" width="80" height="7" rx="1" fill="#F6EEE5"/>
<rect opacity="0.1" x="100" y="50" width="10" height="10" fill="#494949"/>
<rect opacity="0.1" x="160" y="250" width="10" height="10" rx="2" fill="#494949"/>
<rect opacity="0.1" x="440" y="171" width="10" height="10" rx="3" fill="#494949"/>
<rect opacity="0.1" x="440" y="221" width="10" height="10" fill="#494949"/>
<rect opacity="0.1" x="380" y="430" width="10" height="10" rx="2" fill="#494949"/>
</svg>
