<svg width="800" height="480" viewBox="0 0 800 480" fill="none" xmlns="http://www.w3.org/2000/svg">
<rect x="760" y="-76" width="118" height="632" fill="#494949"/>
<rect x="210" y="-58" width="127" height="210" fill="#494949"/>
<rect x="-82" y="440" width="318" height="124" fill="#494949"/>
<rect x="293" y="440" width="332" height="124" fill="#494949"/>
<rect x="560" y="362" width="318" height="194" fill="#494949"/>
<rect x="210" y="-154" width="698" height="204" fill="#494949"/>
<rect x="-123" y="-119" width="163" height="375" fill="#494949"/>
<rect x="-113" y="122" width="234" height="216" fill="#494949"/>
<rect x="-98" y="240" width="334" height="118" fill="#494949"/>
<rect x="-98" y="420" width="123" height="128" fill="#494949"/>
<rect x="594" y="-119" width="305" height="271" fill="#494949"/>
<rect x="576" y="240" width="125" height="86" fill="#494949"/>
<rect x="293" y="240" width="217" height="163" fill="#494949"/>
<rect x="400" y="114" width="110" height="38" fill="#494949"/>
<rect x="564" y="243" width="12" height="77" rx="1" fill="#F44545"/>
<rect x="580" y="228" width="117" height="12" rx="1" fill="#F44545"/>
<rect x="403" y="102" width="104" height="12" rx="1" fill="#F44545"/>
<rect x="403" y="152" width="104" height="12" fill="#F44545"/>
<rect x="510" y="117" width="12" height="32" fill="#F44545"/>
<rect x="388" y="117" width="12" height="32" rx="1" fill="#F44545"/>
<rect x="121" y="-76" width="232" height="116" fill="#494949"/>
<rect x="701" y="243" width="12" height="77" fill="#F44545"/>
<rect x="581" y="326" width="115" height="12" fill="#F44545"/>
<rect x="121" y="152" width="9" height="53" fill="#F44545"/>
<rect width="80" height="7" rx="1" transform="matrix(-1 0 0 1 107 433)" fill="#F6EEE5"/>
<rect width="7" height="80" rx="1" transform="matrix(-1 0 0 1 210 42)" fill="#F6EEE5"/>
<rect opacity="0.1" x="750" y="364" width="10" height="10" rx="2" fill="#494949"/>
<rect opacity="0.1" x="750" y="152" width="10" height="10" rx="1" fill="#494949"/>
<rect opacity="0.1" x="584" y="50" width="10" height="10" rx="1" fill="#494949"/>
<rect opacity="0.1" x="200" y="40" width="10" height="10" rx="1" fill="#494949"/>
<rect opacity="0.1" x="550" y="430" width="10" height="10" rx="2" fill="#494949"/>
<rect opacity="0.1" x="337" y="50" width="10" height="10" fill="#494949"/>
<rect opacity="0.1" x="40" y="112" width="10" height="10" rx="3" fill="#494949"/>
<rect opacity="0.1" x="121" y="230" width="10" height="10" rx="3" fill="#494949"/>
<rect opacity="0.1" x="25" y="431" width="10" height="10" rx="3" fill="#494949"/>
<rect x="305" y="414" width="17" height="17" rx="5" fill="#FFD465" stroke="#F0B542" stroke-width="3"/>
</svg>
