<svg width="800" height="480" viewBox="0 0 800 480" fill="none" xmlns="http://www.w3.org/2000/svg">
<rect x="-86" y="-95" width="332" height="297" fill="#494949"/>
<rect x="-70" y="311" width="331" height="282" fill="#494949"/>
<rect x="80" y="373" width="247" height="155" fill="#494949"/>
<rect x="415" y="202" width="50" height="74" fill="#494949"/>
<rect x="683" y="158" width="204" height="404" fill="#494949"/>
<rect x="159" y="429" width="415" height="170" fill="#494949"/>
<rect x="465" y="373" width="317" height="220" fill="#494949"/>
<rect x="-100" y="75" width="180" height="366" fill="#494949"/>
<rect x="96" y="-142" width="369" height="243" fill="#494949"/>
<rect x="283" y="-134" width="627" height="196" fill="#494949"/>
<rect x="740" y="-95" width="201" height="650" fill="#494949"/>
<rect x="565" y="282" width="235" height="280" fill="#494949"/>
<rect x="246" y="105" width="7" height="85" fill="#7C5DBE"/>
<rect x="465" y="62" width="100" height="7" fill="#7C5DBE"/>
<rect x="261" y="101" width="100" height="7" fill="#FC954B"/>
<rect x="80" y="206" width="7" height="100" fill="#FC954B"/>
<rect x="701" y="72" width="17" height="17" rx="5" fill="#FFD465" stroke="#F0B542" stroke-width="3"/>
<rect opacity="0.1" x="80" y="202" width="10" height="10" fill="#494949"/>
<rect opacity="0.1" x="246" y="101" width="10" height="10" fill="#494949"/>
<rect opacity="0.1" x="465" y="62" width="10" height="10" fill="#494949"/>
<rect opacity="0.1" x="730" y="62" width="10" height="10" rx="1" fill="#494949"/>
<rect opacity="0.1" x="673" y="272" width="10" height="10" rx="2" fill="#494949"/>
<rect opacity="0.1" x="730" y="148" width="10" height="10" rx="2" fill="#494949"/>
<rect opacity="0.1" x="555" y="363" width="10" height="10" rx="2" fill="#494949"/>
<rect opacity="0.1" x="455" y="419" width="10" height="10" rx="2" fill="#494949"/>
<rect opacity="0.1" x="327" y="419" width="10" height="10" rx="3" fill="#494949"/>
<rect opacity="0.1" x="261" y="363" width="10" height="10" rx="3" fill="#494949"/>
<rect opacity="0.1" x="80" y="301" width="10" height="10" rx="3" fill="#494949"/>
</svg>
