<svg width="800" height="480" viewBox="0 0 800 480" fill="none" xmlns="http://www.w3.org/2000/svg">
<rect x="724" y="-21" width="200" height="439" fill="#494949"/>
<rect x="-69" y="-81" width="376" height="233" fill="#494949"/>
<rect x="665" y="-103" width="259" height="214" fill="#494949"/>
<rect x="497" y="-96" width="91" height="123" fill="#494949"/>
<rect x="-101" y="-59" width="321" height="263" fill="#494949"/>
<rect x="-76" y="54" width="236" height="342" fill="#494949"/>
<rect x="220" y="440" width="301" height="159" fill="#494949"/>
<rect x="620" y="440" width="198" height="159" fill="#494949"/>
<rect x="620" y="281" width="158" height="40" fill="#494949"/>
<rect x="434" y="396" width="87" height="170" fill="#494949"/>
<rect x="685" y="281" width="202" height="306" fill="#494949"/>
<rect x="307" y="212" width="88" height="85" fill="#494949"/>
<rect x="368" y="212" width="63" height="37" fill="#494949"/>
<rect x="307" y="15" width="6" height="80" fill="#F6EEE5"/>
<rect x="717" y="172" width="7" height="80" rx="1" fill="#7A51D3"/>
<rect x="315" y="200" width="72" height="12" rx="1" fill="#F44545"/>
<rect x="315" y="297" width="72" height="12" fill="#F44545"/>
<rect x="712" y="111" width="12" height="41" rx="1" fill="#F44545"/>
<rect opacity="0.1" x="220" y="152" width="10" height="10" fill="#494949"/>
<rect opacity="0.1" x="395" y="249" width="10" height="10" fill="#494949"/>
<rect opacity="0.1" x="160" y="204" width="10" height="10" fill="#494949"/>
<rect opacity="0.1" x="714" y="111" width="10" height="10" rx="1" fill="#494949"/>
<rect opacity="0.1" x="675" y="321" width="10" height="10" rx="1" fill="#494949"/>
<rect opacity="0.1" x="714" y="271" width="10" height="10" rx="2" fill="#494949"/>
<rect opacity="0.1" x="675" y="430" width="10" height="10" rx="2" fill="#494949"/>
<rect opacity="0.1" x="424" y="430" width="10" height="10" rx="2" fill="#494949"/>
<rect x="342" y="176" width="17" height="17" rx="5" fill="#FFD465" stroke="#E2A734" stroke-width="3"/>
<rect x="400" y="35" width="17" height="17" rx="5" fill="#FFD465" stroke="#E2A734" stroke-width="3"/>
</svg>
