<svg width="800" height="480" viewBox="0 0 800 480" fill="none" xmlns="http://www.w3.org/2000/svg">
<rect x="760" width="40" height="412" fill="#494949"/>
<rect y="268" width="153" height="212" fill="#494949"/>
<rect y="111" width="90" height="182" fill="#494949"/>
<rect width="153" height="143" fill="#494949"/>
<rect width="800" height="40" fill="#494949"/>
<rect y="440" width="467" height="40" fill="#494949"/>
<rect x="414" y="367" width="100" height="113" fill="#494949"/>
<rect x="674" y="307" width="126" height="173" fill="#494949"/>
<rect x="477" y="398" width="216" height="82" fill="#494949"/>
<rect x="498" y="268" width="70" height="150" fill="#494949"/>
<rect x="340" width="423" height="227" fill="#494949"/>
<rect x="333" y="145" width="7" height="80" rx="1" fill="#F48D43"/>
<rect x="350" y="227" width="100" height="7" fill="#F48D43"/>
<rect x="416" y="360" width="80" height="7" rx="1" fill="#7A51D3"/>
<rect x="753" y="227" width="7" height="80" rx="1" fill="#7A51D3"/>
<rect x="568" y="227" width="52" height="12" fill="#F44545"/>
</svg>
