<svg width="800" height="480" viewBox="0 0 800 480" fill="none" xmlns="http://www.w3.org/2000/svg">
<rect x="316" y="-49" width="139" height="271" fill="#494949"/>
<rect x="276" y="-88" width="179" height="274" fill="#494949"/>
<rect x="-38" y="-35" width="118" height="181" fill="#494949"/>
<rect x="-65" y="-123" width="520" height="229" fill="#494949"/>
<rect x="234" y="400" width="505" height="225" fill="#494949"/>
<rect x="234" y="346" width="100" height="220" fill="#494949"/>
<rect x="521" y="346" width="312" height="249" fill="#494949"/>
<rect x="654" y="-141" width="287" height="745" fill="#494949"/>
<rect x="521" y="138" width="85" height="84" fill="#494949"/>
<rect x="-85" y="-130" width="125" height="379" fill="#494949"/>
<rect x="329" y="-249" width="438" height="301" fill="#494949"/>
<rect x="334" y="222" width="80" height="6" fill="#F08E47"/>
<rect x="40" y="146" width="7" height="80" fill="#F6EEE5"/>
<rect x="574" y="52" width="80" height="7" fill="#F6EEE5"/>
<rect x="343" y="317" width="17" height="17" rx="5" fill="#FFD465" stroke="#F0B542" stroke-width="3"/>
<rect opacity="0.1" x="80" y="106" width="10" height="10" fill="#494949"/>
<rect opacity="0.1" x="40" y="146" width="10" height="10" fill="#494949"/>
<rect opacity="0.1" x="266" y="106" width="10" height="10" rx="1" fill="#494949"/>
<rect opacity="0.1" x="306" y="186" width="10" height="10" rx="1" fill="#494949"/>
<rect opacity="0.1" x="644" y="52" width="10" height="10" rx="1" fill="#494949"/>
<rect opacity="0.1" x="455" y="52" width="10" height="10" fill="#494949"/>
<rect opacity="0.1" x="334" y="390" width="10" height="10" rx="3" fill="#494949"/>
<rect opacity="0.1" x="511" y="390" width="10" height="10" rx="2" fill="#494949"/>
<rect opacity="0.1" x="644" y="336" width="10" height="10" rx="2" fill="#494949"/>
</svg>
