<svg width="800" height="480" viewBox="0 0 800 480" fill="none" xmlns="http://www.w3.org/2000/svg">
<rect x="358" y="390" width="157" height="90" fill="#494949"/>
<rect x="670" y="390" width="130" height="90" fill="#494949"/>
<rect x="760" y="121" width="50" height="291" fill="#494949"/>
<rect width="207" height="164" fill="#494949"/>
<rect x="174" width="97" height="129" fill="#494949"/>
<rect x="358" y="307" width="53" height="115" fill="#494949"/>
<rect x="326" y="164" width="85" height="53" fill="#494949"/>
<rect x="166" y="450" width="233" height="30" fill="#494949"/>
<rect y="359" width="207" height="121" fill="#494949"/>
<rect x="515" y="307" width="155" height="30" fill="#494949"/>
<rect x="231" width="180" height="50" fill="#494949"/>
<rect x="329" y="152" width="79" height="12" rx="1" fill="#F44545"/>
<rect x="718" y="378" width="42" height="12" rx="1" fill="#F44545"/>
<rect x="207" y="438" width="96" height="12" rx="1" fill="#F44545"/>
<rect x="748" y="184" width="12" height="65" rx="1" fill="#F44545"/>
<rect x="658" y="394" width="12" height="86" rx="1" fill="#F44545"/>
<rect x="515" y="394" width="12" height="86" fill="#F44545"/>
<rect x="411" y="167" width="12" height="47" fill="#F44545"/>
<rect x="496" width="178" height="50" fill="#494949"/>
<rect x="296" width="504" height="40" fill="#494949"/>
<rect y="135" width="40" height="263" fill="#494949"/>
<rect x="603" width="197" height="129" fill="#494949"/>
</svg>
