<svg width="800" height="480" viewBox="0 0 800 480" fill="none" xmlns="http://www.w3.org/2000/svg">
<rect x="278" y="389" width="669" height="229" fill="#494949"/>
<rect x="278" y="383" width="313" height="235" fill="#494949"/>
<rect x="-87" y="-74" width="974" height="114" fill="#494949"/>
<rect x="-99" y="-102" width="211" height="684" fill="#494949"/>
<rect x="-99" y="-102" width="377" height="283" fill="#494949"/>
<rect x="170" y="253" width="108" height="51" fill="#494949"/>
<rect x="598" y="-88" width="308" height="218" fill="#494949"/>
<rect x="445" y="-102" width="95" height="185" fill="#494949"/>
<rect x="-115" y="-102" width="488" height="232" fill="#494949"/>
<rect x="740" y="-88" width="166" height="656" fill="#494949"/>
<rect x="373" y="346" width="255" height="272" fill="#494949"/>
<rect x="373" y="330" width="40" height="84" fill="#494949"/>
<rect x="733" y="309" width="7" height="80" rx="1" fill="#F6EEE5"/>
<rect x="112" y="351" width="7" height="80" fill="#F6EEE5"/>
<rect x="591" y="40" width="7" height="80" rx="1" fill="#F6EEE5"/>
<rect x="373" y="40" width="6" height="80" fill="#7C5DBE"/>
<rect x="540" y="339" width="80" height="7" rx="1" fill="#7C5DBE"/>
<rect x="361" y="343" width="12" height="40" rx="1" fill="#F44545"/>
<rect opacity="0.1" x="373" y="40" width="10" height="10" fill="#494949"/>
<rect opacity="0.1" x="278" y="130" width="10" height="10" fill="#494949"/>
<rect opacity="0.1" x="112" y="181" width="10" height="10" fill="#494949"/>
<rect opacity="0.1" x="540" y="40" width="10" height="10" fill="#494949"/>
<rect opacity="0.1" x="588" y="40" width="10" height="10" rx="1" fill="#494949"/>
<rect opacity="0.1" x="435" y="40" width="10" height="10" rx="1" fill="#494949"/>
<rect opacity="0.1" x="730" y="130" width="10" height="10" rx="1" fill="#494949"/>
<rect opacity="0.1" x="730" y="379" width="10" height="10" rx="2" fill="#494949"/>
<rect opacity="0.1" x="363" y="373" width="10" height="10" rx="2" fill="#494949"/>
<rect opacity="0.1" x="628" y="379" width="10" height="10" rx="3" fill="#494949"/>
<rect opacity="0.1" x="413" y="336" width="10" height="10" rx="3" fill="#494949"/>
<rect x="420" y="55" width="17" height="17" rx="5" fill="#FFD465" stroke="#E2A734" stroke-width="3"/>
</svg>
