<svg width="800" height="480" viewBox="0 0 800 480" fill="none" xmlns="http://www.w3.org/2000/svg">
<rect x="397" y="230" width="129" height="109" fill="#494949"/>
<rect x="397" y="155" width="47" height="84" fill="#494949"/>
<rect x="397" y="110" width="129" height="45" fill="#494949"/>
<rect x="494" y="110" width="32" height="80" fill="#494949"/>
<rect x="215" y="251" width="66" height="50" fill="#494949"/>
<rect x="312" y="147" width="100" height="50" fill="#494949"/>
<rect y="50" width="89" height="201" fill="#494949"/>
<rect y="110" width="132" height="87" fill="#494949"/>
<rect y="50" width="165" height="60" fill="#494949"/>
<rect x="166" y="251" width="50" height="229" fill="#494949"/>
<rect x="166" y="414" width="634" height="66" fill="#494949"/>
<rect y="455" width="167" height="25" fill="#494949"/>
<rect y="411" width="44" height="69" fill="#494949"/>
<rect y="251" width="44" height="61" fill="#494949"/>
<rect x="581" y="40" width="141" height="115" fill="#494949"/>
<rect x="526" y="230" width="102" height="59" fill="#494949"/>
<rect x="722" y="40" width="78" height="70" fill="#494949"/>
<rect x="722" y="110" width="78" height="370" fill="#494949"/>
<rect width="800" height="50" fill="#494949"/>
<rect x="526" y="110" width="12" height="45" fill="#F44545"/>
<rect x="628" y="230" width="12" height="59" fill="#F44545"/>
<rect x="526" y="289" width="12" height="50" fill="#F44545"/>
<rect x="165" y="50" width="12" height="60" fill="#F44545"/>
<rect x="397" y="98" width="129" height="12" fill="#F44545"/>
<rect x="312" y="135" width="85" height="12" fill="#F44545"/>
<rect x="300" y="147" width="12" height="50" fill="#F44545"/>
<rect x="132" y="110" width="12" height="87" fill="#F44545"/>
<rect x="44" y="251" width="12" height="61" fill="#F44545"/>
<rect x="44" y="411" width="12" height="44" fill="#F44545"/>
<rect x="281" y="251" width="12" height="50" fill="#F44545"/>
<rect x="385" y="197" width="12" height="104" fill="#F44545"/>
<rect x="297" y="50" width="100" height="6" fill="#F09D3C"/>
<rect x="444" y="157" width="6" height="71" fill="#F09D3C"/>
<rect x="481" y="408" width="100" height="6" fill="#DDE2ED"/>
<rect x="89" y="449" width="75" height="6" fill="#DDE2ED"/>
</svg>
