<svg width="800" height="480" viewBox="0 0 800 480" fill="none" xmlns="http://www.w3.org/2000/svg">
<rect x="-105" y="-108" width="285" height="353" fill="#494949"/>
<rect x="-105" y="398" width="268" height="189" fill="#494949"/>
<rect x="459" y="402" width="464" height="185" fill="#494949"/>
<rect x="104" y="-130" width="355" height="162" fill="#494949"/>
<rect x="361" y="-72" width="98" height="192" fill="#494949"/>
<rect x="-84" y="118" width="134" height="428" fill="#494949"/>
<rect x="737" y="321" width="168" height="210" fill="#494949"/>
<rect x="737" y="-101" width="215" height="217" fill="#494949"/>
<rect x="689" y="-130" width="205" height="189" fill="#494949"/>
<rect x="333" y="-125" width="508" height="149" fill="#494949"/>
<rect x="180" y="72" width="7" height="80" fill="#7C5DBE"/>
<rect x="657" y="395" width="80" height="7" rx="1" fill="#F08E47"/>
<rect x="745" y="116" width="71" height="12" fill="#F44545"/>
<rect x="745" y="309" width="71" height="12" rx="1" fill="#F44545"/>
<rect x="459.005" y="27.005" width="10.99" height="81.99" fill="#FE4A49" stroke="black" stroke-width="0.01"/>
<rect x="349.005" y="32.005" width="11.99" height="73.99" rx="0.995" fill="#F44545" stroke="black" stroke-width="0.01"/>
<path d="M427 106.5V67.501H443" stroke="#676767" stroke-width="4.01" stroke-linecap="round" stroke-linejoin="round"/>
<rect opacity="0.5" x="416.005" y="120.005" width="20.99" height="96.99" fill="#383838" stroke="black" stroke-width="0.01"/>
<rect opacity="0.1" x="180" y="32" width="10" height="10" fill="#494949"/>
<rect opacity="0.1" x="50" y="245" width="10" height="10" fill="#494949"/>
<rect opacity="0.1" x="459" y="24" width="10" height="10" fill="#494949"/>
<rect opacity="0.1" x="679" y="24" width="10" height="10" rx="1" fill="#494949"/>
<rect opacity="0.1" x="351" y="32" width="10" height="10" rx="1" fill="#494949"/>
<rect opacity="0.1" x="727" y="59" width="10" height="10" rx="1" fill="#494949"/>
<rect opacity="0.1" x="50" y="388" width="10" height="10" rx="3" fill="#494949"/>
<rect opacity="0.1" x="727" y="392" width="10" height="10" rx="2" fill="#494949"/>
<rect x="384" y="132" width="17" height="17" rx="5" fill="#FFD465" stroke="#E2A734" stroke-width="3"/>
</svg>
