<svg width="800" height="480" viewBox="0 0 800 480" fill="none" xmlns="http://www.w3.org/2000/svg">
<rect x="-73" y="391" width="613" height="205" fill="#494949"/>
<rect x="692" y="225" width="228" height="330" fill="#494949"/>
<rect x="760" width="146" height="205" fill="#494949"/>
<rect x="660" y="391" width="238" height="188" fill="#494949"/>
<rect x="-89" y="175" width="308" height="78" fill="#494949"/>
<rect x="-89" y="180" width="129" height="226" fill="#494949"/>
<rect x="710" y="-119" width="189" height="187" fill="#494949"/>
<rect x="340" y="-142" width="200" height="193" fill="#494949"/>
<rect x="59" y="-104" width="160" height="155" fill="#494949"/>
<rect x="-113" y="-68" width="292" height="321" fill="#494949"/>
<rect x="-94" y="359" width="220" height="214" fill="#494949"/>
<rect x="660" y="135" width="242" height="186" fill="#494949"/>
<rect x="340" y="124" width="200" height="103" fill="#494949"/>
<rect x="540" y="131" width="12" height="93" fill="#F44545"/>
<rect x="540" y="400" width="12" height="80" fill="#F44545"/>
<rect x="540" y="-20" width="12" height="64" fill="#F44545"/>
<rect x="648" y="400" width="12" height="84" rx="1" fill="#F44545"/>
<rect x="698" y="-20" width="12" height="64" rx="1" fill="#F44545"/>
<rect x="648" y="143" width="12" height="108" rx="1" fill="#F44545"/>
<rect x="343" y="112" width="190" height="12" rx="1" fill="#F44545"/>
<rect x="347" y="51" width="186" height="12" fill="#F44545"/>
<rect x="722" y="68" width="38" height="12" fill="#F44545"/>
<rect x="333" y="145" width="7" height="80" rx="1" fill="#F6EEE5"/>
<rect x="350" y="227" width="100" height="7" fill="#F6EEE5"/>
<rect x="678" y="129" width="80" height="6" rx="1" fill="#7A51D3"/>
<rect x="40" y="256" width="7" height="100" fill="#7A51D3"/>
<rect opacity="0.1" x="179" y="51" width="10" height="10" fill="#494949"/>
<rect opacity="0.1" x="179" y="165" width="10" height="10" rx="3" fill="#494949"/>
<rect opacity="0.1" x="126" y="381" width="10" height="10" rx="3" fill="#494949"/>
<rect opacity="0.1" x="40" y="349" width="10" height="10" rx="3" fill="#494949"/>
<rect opacity="0.1" x="750" y="68" width="10" height="10" rx="1" fill="#494949"/>
<rect opacity="0.1" x="682" y="321" width="10" height="10" rx="1" fill="#494949"/>
<rect opacity="0.1" x="750" y="125" width="10" height="10" rx="2" fill="#494949"/>
<rect opacity="0.1" x="682" y="381" width="10" height="10" rx="2" fill="#494949"/>
<rect opacity="0.1" x="40" y="253" width="10" height="10" fill="#494949"/>
<rect x="683" y="49" width="17" height="17" rx="5" fill="#FFD465" stroke="#F0B542" stroke-width="3"/>
<rect x="631" y="293" width="17" height="17" rx="5" fill="#FFD465" stroke="#F0B542" stroke-width="3"/>
</svg>
