<svg width="800" height="480" viewBox="0 0 800 480" fill="none" xmlns="http://www.w3.org/2000/svg">
<rect x="268" y="99" width="6" height="100" rx="1" fill="#F08E47"/>
<rect x="515" y="201" width="100" height="6" fill="#F6EEE5"/>
<rect x="-98" y="331" width="996" height="267" fill="#494949"/>
<rect x="274" y="-42" width="497" height="243" fill="#494949"/>
<rect x="618" y="-104" width="297" height="688" fill="#494949"/>
<rect x="-98" y="-84" width="237" height="595" fill="#494949"/>
<rect x="-89" y="-104" width="978" height="200" fill="#494949"/>
<rect opacity="0.1" x="139" y="96" width="10" height="10" fill="#494949"/>
<rect opacity="0.1" x="139" y="321" width="10" height="10" rx="3" fill="#494949"/>
<rect opacity="0.1" x="608" y="321" width="10" height="10" rx="2" fill="#494949"/>
<rect opacity="0.1" x="264" y="96" width="10" height="10" rx="1" fill="#494949"/>
<rect opacity="0.1" x="608" y="201" width="10" height="10" rx="1" fill="#494949"/>
<rect x="584" y="300" width="17" height="17" rx="5" fill="#FFD465" stroke="#F0B542" stroke-width="3"/>
</svg>
