<svg width="800" height="480" viewBox="0 0 800 480" fill="none" xmlns="http://www.w3.org/2000/svg">
<rect x="296" y="187" width="208" height="168" fill="#494949"/>
<rect x="-63" y="99" width="145" height="453" fill="#494949"/>
<rect x="648" y="232" width="245" height="320" fill="#494949"/>
<rect x="706" y="-112" width="212" height="456" fill="#494949"/>
<rect x="37" y="-150" width="467" height="237" fill="#494949"/>
<rect x="406" y="-150" width="460" height="252" fill="#494949"/>
<rect x="406" y="-62" width="98" height="417" fill="#494949"/>
<rect x="-91" y="-86" width="290" height="318" fill="#494949"/>
<rect x="-73" y="440" width="435" height="117" fill="#494949"/>
<rect x="573" y="430" width="320" height="127" fill="#494949"/>
<rect x="296" y="187" width="90" height="378" fill="#494949"/>
<rect x="504" y="200" width="7" height="80" fill="#F08E47"/>
<rect x="82" y="360" width="7" height="80" fill="#7C5DBE"/>
<rect x="198.992" y="97.0019" width="11" height="82" transform="rotate(-0.01 198.992 97.0019)" fill="#35ABEE"/>
<path d="M183 197H169.5V137.5H183" stroke="#676767" stroke-width="4.01" stroke-linecap="round" stroke-linejoin="round"/>
<rect opacity="0.5" x="198.998" y="187.009" width="97" height="21" transform="rotate(-0.01 198.998 187.009)" fill="#383838"/>
<rect opacity="0.1" x="82" y="232" width="10" height="10" fill="#494949"/>
<rect opacity="0.1" x="199" y="87" width="10" height="10" fill="#494949"/>
<rect opacity="0.1" x="504" y="102" width="10" height="10" fill="#494949"/>
<rect opacity="0.1" x="396" y="87" width="10" height="10" rx="1" fill="#494949"/>
<rect opacity="0.1" x="396" y="177" width="10" height="10" rx="2" fill="#494949"/>
<rect opacity="0.1" x="696" y="102" width="10" height="10" rx="1" fill="#494949"/>
<rect opacity="0.1" x="386" y="355" width="10" height="10" fill="#494949"/>
<rect opacity="0.1" x="82" y="430" width="10" height="10" rx="3" fill="#494949"/>
<rect opacity="0.1" x="286" y="430" width="10" height="10" rx="2" fill="#494949"/>
<rect opacity="0.1" x="638" y="420" width="10" height="10" rx="2" fill="#494949"/>
<rect opacity="0.1" x="696" y="222" width="10" height="10" rx="2" fill="#494949"/>
<rect x="271" y="287" width="17" height="17" rx="5" fill="#FFD465" stroke="#E2A734" stroke-width="3"/>
</svg>
