<svg width="800" height="480" viewBox="0 0 800 480" fill="none" xmlns="http://www.w3.org/2000/svg">
<rect x="505" y="440" width="437" height="176" fill="#494949"/>
<rect x="-122" y="277" width="216" height="319" fill="#494949"/>
<rect x="128" y="-74" width="40" height="174" fill="#494949"/>
<rect x="232" y="226" width="67" height="55" fill="#494949"/>
<rect x="505" y="226" width="69" height="118" fill="#494949"/>
<rect x="505" y="413" width="69" height="163" fill="#494949"/>
<rect x="654" y="226" width="325" height="118" fill="#494949"/>
<rect x="708" y="-115" width="210" height="244" fill="#494949"/>
<rect x="755" y="226" width="244" height="339" fill="#494949"/>
<rect x="-172" y="-98" width="212" height="473" fill="#494949"/>
<rect x="-68" y="-85" width="268" height="137" fill="#494949"/>
<rect x="98" y="-110" width="335" height="144" fill="#494949"/>
<rect x="331" y="-121" width="587" height="173" fill="#494949"/>
<rect x="-39" y="413" width="298" height="203" fill="#494949"/>
<rect x="-39" y="333" width="239" height="243" fill="#494949"/>
<rect x="499" y="253" width="6" height="80" rx="1" fill="#F08E47"/>
<rect x="40" y="146" width="7" height="80" fill="#7A51D3"/>
<rect x="574" y="52" width="80" height="7" fill="#7A51D3"/>
<rect x="42" y="52" width="84" height="7" fill="#F08E47"/>
<rect x="574" y="428" width="80" height="12" rx="1" fill="#F44545"/>
<rect x="383" y="253" width="17" height="17" rx="5" fill="#FFD465" stroke="#F0B542" stroke-width="3"/>
<rect opacity="0.1" x="200" y="34" width="10" height="10" fill="#494949"/>
<rect opacity="0.1" x="168" y="52" width="10" height="10" fill="#494949"/>
<rect opacity="0.1" x="321" y="34" width="10" height="10" rx="1" fill="#494949"/>
<rect opacity="0.1" x="118" y="52" width="10" height="10" rx="1" fill="#494949"/>
<rect opacity="0.1" x="40" y="52" width="10" height="10" fill="#494949"/>
<rect opacity="0.1" x="40" y="267" width="10" height="10" rx="3" fill="#494949"/>
<rect opacity="0.1" x="94" y="323" width="10" height="10" rx="3" fill="#494949"/>
<rect opacity="0.1" x="200" y="403" width="10" height="10" rx="3" fill="#494949"/>
<rect opacity="0.1" x="574" y="430" width="10" height="10" rx="3" fill="#494949"/>
<rect opacity="0.1" x="745" y="430" width="10" height="10" rx="2" fill="#494949"/>
<rect opacity="0.1" x="745" y="344" width="10" height="10" rx="1" fill="#494949"/>
<rect opacity="0.1" x="698" y="52" width="10" height="10" rx="1" fill="#494949"/>
</svg>
