<svg width="800" height="480" viewBox="0 0 800 480" fill="none" xmlns="http://www.w3.org/2000/svg">
<rect x="404" y="230" width="122" height="109" fill="#494949"/>
<rect x="404" y="110" width="40" height="216" fill="#494949"/>
<rect x="397" y="110" width="129" height="37" fill="#494949"/>
<rect x="494" y="110" width="32" height="80" fill="#494949"/>
<rect x="166" y="251" width="115" height="50" fill="#494949"/>
<rect x="312" y="142" width="132" height="55" fill="#494949"/>
<rect x="-75" y="73" width="164" height="178" fill="#494949"/>
<rect x="-75" y="-42" width="207" height="239" fill="#494949"/>
<rect x="-75" y="-77" width="240" height="187" fill="#494949"/>
<rect x="166" y="251" width="50" height="274" fill="#494949"/>
<rect x="166" y="414" width="716" height="148" fill="#494949"/>
<rect x="-60" y="455" width="290" height="78" fill="#494949"/>
<rect x="-82" y="411" width="126" height="131" fill="#494949"/>
<rect x="-82" y="110" width="126" height="202" fill="#494949"/>
<rect x="581" y="-71" width="290" height="226" fill="#494949"/>
<rect x="426" y="230" width="202" height="59" fill="#494949"/>
<rect x="722" y="-14" width="175" height="584" fill="#494949"/>
<rect x="-82" y="-87" width="964" height="137" fill="#494949"/>
<rect x="526" y="118" width="12" height="37" fill="#F44545"/>
<rect x="628" y="236" width="12" height="47" fill="#F44545"/>
<rect x="526" y="289" width="12" height="43" fill="#F44545"/>
<rect x="165" y="50" width="12" height="56" fill="#F44545"/>
<rect x="400" y="98" width="119" height="12" rx="1" fill="#F44545"/>
<rect x="318" y="130" width="79" height="12" rx="1" fill="#F44545"/>
<rect x="300" y="150" width="12" height="44" rx="1" fill="#F44545"/>
<rect x="132" y="110" width="12" height="84" fill="#F44545"/>
<rect x="44" y="251" width="12" height="50" fill="#F44545"/>
<rect x="44" y="419" width="12" height="36" fill="#F44545"/>
<rect x="281" y="256" width="12" height="40" fill="#F44545"/>
<rect x="392" y="197" width="12" height="104" rx="1" fill="#F44545"/>
<rect x="297" y="50" width="100" height="7" fill="#FC954B"/>
<rect x="444" y="157" width="6" height="71" fill="#FC954B"/>
<rect x="481" y="407" width="100" height="7" rx="1" fill="#F6EEE5"/>
<rect x="89" y="448" width="75" height="7" rx="1" fill="#F6EEE5"/>
<rect opacity="0.1" x="89" y="197" width="10" height="10" fill="#494949"/>
<rect opacity="0.1" x="132" y="110" width="10" height="10" fill="#494949"/>
<rect opacity="0.1" x="165" y="50" width="10" height="10" fill="#494949"/>
<rect opacity="0.1" x="44" y="251" width="10" height="10" fill="#494949"/>
<rect opacity="0.1" x="216" y="301" width="10" height="10" fill="#494949"/>
<rect opacity="0.1" x="444" y="147" width="10" height="10" fill="#494949"/>
<rect opacity="0.1" x="526" y="289" width="10" height="10" fill="#494949"/>
<rect opacity="0.1" x="44" y="445" width="10" height="10" rx="3" fill="#494949"/>
<rect opacity="0.1" x="156" y="445" width="10" height="10" rx="2" fill="#494949"/>
<rect opacity="0.1" x="712" y="404" width="10" height="10" rx="2" fill="#494949"/>
<rect opacity="0.1" x="484" y="147" width="10" height="10" rx="1" fill="#494949"/>
<rect opacity="0.1" x="394" y="197" width="10" height="10" rx="1" fill="#494949"/>
<rect opacity="0.1" x="712" y="155" width="10" height="10" rx="1" fill="#494949"/>
<rect opacity="0.1" x="571" y="50" width="10" height="10" rx="1" fill="#494949"/>
<rect opacity="0.1" x="216" y="404" width="10" height="10" rx="3" fill="#494949"/>
<rect opacity="0.1" x="444" y="220" width="10" height="10" rx="3" fill="#494949"/>
<rect opacity="0.1" x="387" y="132" width="10" height="10" rx="2" fill="#494949"/>
</svg>
