<svg width="800" height="480" viewBox="0 0 800 480" fill="none" xmlns="http://www.w3.org/2000/svg">
<rect x="290" y="152" width="180" height="72" fill="#494949"/>
<rect x="50" y="455" width="280" height="25" fill="#494949"/>
<rect y="327" width="50" height="40" fill="#494949"/>
<rect y="434" width="50" height="46" fill="#494949"/>
<rect x="470" y="414" width="121" height="66" fill="#494949"/>
<rect x="511" y="40" width="40" height="40" fill="#494949"/>
<rect x="164" y="40" width="126" height="40" fill="#494949"/>
<rect x="551" y="40" width="249" height="120" fill="#494949"/>
<rect x="722" y="160" width="78" height="167" fill="#494949"/>
<rect width="800" height="40" fill="#494949"/>
<rect x="682" y="327" width="118" height="153" fill="#494949"/>
<rect y="40" width="89" height="184" fill="#494949"/>
<rect y="224" width="25" height="143" fill="#494949"/>
<rect x="290" y="434" width="180" height="46" fill="#494949"/>
<rect x="670" y="327" width="12" height="153" rx="1" fill="#F44545"/>
<rect x="710" y="160" width="12" height="123" rx="1" fill="#F44545"/>
<rect x="290" y="140" width="180" height="12" rx="1" fill="#F44545"/>
<rect x="164" y="80" width="126" height="12" fill="#F44545"/>
<rect x="481" y="408" width="100" height="6" rx="1" fill="#9F51DC"/>
<rect x="89" y="449" width="75" height="6" rx="1" fill="#9F51DC"/>
<rect x="89" y="120" width="6" height="100" fill="#F09D3C"/>
</svg>
