<svg width="800" height="480" viewBox="0 0 800 480" fill="none" xmlns="http://www.w3.org/2000/svg">
<rect x="428" y="394" width="118" height="160" fill="#494949"/>
<rect x="442" y="427" width="362" height="127" fill="#494949"/>
<rect x="700" y="311" width="165" height="226" fill="#494949"/>
<rect x="-73" y="-114" width="192" height="255" fill="#494949"/>
<rect x="9" y="-107" width="208" height="170" fill="#494949"/>
<rect x="-73" y="302" width="130" height="266" fill="#494949"/>
<rect x="-92" y="394" width="211" height="165" fill="#494949"/>
<rect x="-30" y="437" width="576" height="109" fill="#494949"/>
<rect x="313" y="-59" width="83" height="370" fill="#494949"/>
<rect x="249" y="233" width="147" height="106" fill="#494949"/>
<rect x="313" y="-134" width="140" height="198" fill="#494949"/>
<rect x="588" y="-75" width="195" height="115" fill="#494949"/>
<rect x="741" y="-29" width="195" height="232" fill="#494949"/>
<rect x="700" y="-134" width="202" height="267" fill="#494949"/>
<rect x="307" y="15" width="6" height="80" rx="1" fill="#FC954B"/>
<rect x="396" y="231" width="7" height="80" fill="#7C5DBE"/>
<rect x="9" y="141" width="80" height="7" fill="#7C5DBE"/>
<rect opacity="0.1" x="119" y="63" width="10" height="10" fill="#494949"/>
<rect opacity="0.1" x="303" y="223" width="10" height="10" rx="2" fill="#494949"/>
<rect opacity="0.1" x="57" y="384" width="10" height="10" rx="3" fill="#494949"/>
<rect opacity="0.1" x="119" y="427" width="10" height="10" rx="3" fill="#494949"/>
<rect opacity="0.1" x="546" y="417" width="10" height="10" rx="3" fill="#494949"/>
<rect opacity="0.1" x="418" y="427" width="10" height="10" rx="2" fill="#494949"/>
<rect opacity="0.1" x="690" y="417" width="10" height="10" rx="2" fill="#494949"/>
<rect opacity="0.1" x="731" y="133" width="10" height="10" rx="1" fill="#494949"/>
<rect opacity="0.1" x="690" y="40" width="10" height="10" rx="1" fill="#494949"/>
<rect opacity="0.1" x="396" y="64" width="10" height="10" fill="#494949"/>
<rect x="18" y="249" width="17" height="17" rx="5" fill="#FFD465" stroke="#E2A734" stroke-width="3"/>
</svg>
