<svg width="800" height="480" viewBox="0 0 800 480" fill="none" xmlns="http://www.w3.org/2000/svg">
<rect x="760" y="239" width="144" height="100" fill="#494949"/>
<rect x="-114" y="307" width="267" height="269" fill="#494949"/>
<rect x="-114" y="3" width="204" height="430" fill="#494949"/>
<rect x="-120" y="-79" width="273" height="222" fill="#494949"/>
<rect x="52" y="440" width="465" height="127" fill="#494949"/>
<rect x="397" y="390" width="542" height="195" fill="#494949"/>
<rect x="340" y="143" width="120" height="84" fill="#494949"/>
<rect x="90" y="143" width="12" height="130" fill="#F44545"/>
<rect x="153" y="313" width="12" height="127" fill="#F44545"/>
<rect x="153" y="3" width="12" height="108" fill="#F44545"/>
<rect x="333" y="145" width="7" height="80" rx="1" fill="#F08E47"/>
<rect x="350" y="227" width="100" height="7" fill="#F08E47"/>
<rect x="753" y="249" width="7" height="80" rx="1" fill="#7C5DBE"/>
<rect x="416" y="383" width="80" height="7" rx="1" fill="#7C5DBE"/>
<rect opacity="0.1" x="90" y="143" width="10" height="10" fill="#494949"/>
<rect opacity="0.1" x="90" y="297" width="10" height="10" rx="3" fill="#494949"/>
<rect opacity="0.1" x="153" y="430" width="10" height="10" rx="3" fill="#494949"/>
<rect opacity="0.1" x="387" y="430" width="10" height="10" rx="2" fill="#494949"/>
<rect x="128" y="283" width="17" height="17" rx="5" fill="#FFD465" stroke="#F0B542" stroke-width="3"/>
</svg>
