<svg width="800" height="480" viewBox="0 0 800 480" fill="none" xmlns="http://www.w3.org/2000/svg">
<rect x="397" y="230" width="129" height="109" fill="#494949"/>
<rect x="397" y="143" width="47" height="96" fill="#494949"/>
<rect x="397" y="110" width="129" height="45" fill="#494949"/>
<rect x="494" y="110" width="32" height="80" fill="#494949"/>
<rect x="192" y="251" width="89" height="50" fill="#494949"/>
<rect x="312" y="142" width="100" height="55" fill="#494949"/>
<rect y="175" width="89" height="76" fill="#494949"/>
<rect y="92" width="132" height="105" fill="#494949"/>
<rect y="25" width="165" height="85" fill="#494949"/>
<rect x="166" y="251" width="50" height="229" fill="#494949"/>
<rect x="166" y="414" width="634" height="66" fill="#494949"/>
<rect y="455" width="202" height="25" fill="#494949"/>
<rect y="411" width="44" height="69" fill="#494949"/>
<rect y="201" width="44" height="111" fill="#494949"/>
<rect x="581" y="36" width="148" height="119" fill="#494949"/>
<rect x="509" y="230" width="119" height="59" fill="#494949"/>
<rect x="722" y="25" width="78" height="455" fill="#494949"/>
<rect width="800" height="50" fill="#494949"/>
<rect x="526" y="113" width="12" height="42" fill="#F44545"/>
<rect x="628" y="233" width="12" height="53" fill="#F44545"/>
<rect x="526" y="289" width="12" height="47" fill="#F44545"/>
<rect x="165" y="50" width="12" height="56" fill="#F44545"/>
<rect x="400" y="98" width="123" height="12" rx="1" fill="#F44545"/>
<rect x="315" y="130" width="82" height="12" rx="1" fill="#F44545"/>
<rect x="300" y="150" width="12" height="44" rx="1" fill="#F44545"/>
<rect x="132" y="110" width="12" height="84" fill="#F44545"/>
<rect x="44" y="251" width="12" height="57" fill="#F44545"/>
<rect x="44" y="414" width="12" height="41" fill="#F44545"/>
<rect x="281" y="254" width="12" height="44" fill="#F44545"/>
<rect x="385" y="197" width="12" height="104" rx="1" fill="#F44545"/>
<rect x="297" y="50" width="100" height="6" fill="#F48D43"/>
<rect x="444" y="157" width="6" height="71" fill="#F48D43"/>
<rect x="481" y="408" width="100" height="6" rx="1" fill="#DDE2ED"/>
<rect x="89" y="449" width="75" height="6" rx="1" fill="#DDE2ED"/>
</svg>
