<svg width="800" height="480" viewBox="0 0 800 480" fill="none" xmlns="http://www.w3.org/2000/svg">
<rect x="290" y="152" width="180" height="72" fill="#494949"/>
<rect x="-55" y="455" width="490" height="127" fill="#494949"/>
<rect x="-94" y="327" width="144" height="40" fill="#494949"/>
<rect x="-102" y="434" width="152" height="129" fill="#494949"/>
<rect x="470" y="414" width="121" height="188" fill="#494949"/>
<rect x="511" y="-56" width="136" height="136" fill="#494949"/>
<rect x="164" y="-56" width="126" height="136" fill="#494949"/>
<rect x="551" y="-74" width="349" height="234" fill="#494949"/>
<rect x="722" y="-121" width="178" height="729" fill="#494949"/>
<rect x="-84" y="-82" width="968" height="122" fill="#494949"/>
<rect x="682" y="327" width="224" height="249" fill="#494949"/>
<rect x="-84" y="-52" width="173" height="276" fill="#494949"/>
<rect x="-84" y="112" width="109" height="255" fill="#494949"/>
<rect x="290" y="434" width="265" height="142" fill="#494949"/>
<rect x="670" y="335" width="12" height="145" rx="1" fill="#F44545"/>
<rect x="710" y="160" width="12" height="123" rx="1" fill="#F44545"/>
<rect x="295" y="140" width="170" height="12" rx="1" fill="#F44545"/>
<rect x="170" y="80" width="114" height="12" fill="#F44545"/>
<rect x="481" y="407" width="100" height="7" rx="1" fill="#7C5DBE"/>
<rect x="89" y="448" width="75" height="7" rx="1" fill="#7C5DBE"/>
<rect x="89" y="120" width="7" height="100" fill="#F18A40"/>
<rect opacity="0.1" x="89" y="40" width="10" height="10" fill="#494949"/>
<rect opacity="0.1" x="25" y="224" width="10" height="10" fill="#494949"/>
<rect opacity="0.1" x="290" y="40" width="10" height="10" fill="#494949"/>
<rect opacity="0.1" x="154" y="40" width="10" height="10" rx="1" fill="#494949"/>
<rect opacity="0.1" x="501" y="40" width="10" height="10" rx="1" fill="#494949"/>
<rect opacity="0.1" x="541" y="80" width="10" height="10" rx="1" fill="#494949"/>
<rect opacity="0.1" x="712" y="160" width="10" height="10" rx="1" fill="#494949"/>
<rect opacity="0.1" x="712" y="317" width="10" height="10" rx="2" fill="#494949"/>
<rect opacity="0.1" x="460" y="424" width="10" height="10" rx="2" fill="#494949"/>
<rect opacity="0.1" x="280" y="445" width="10" height="10" rx="2" fill="#494949"/>
<rect opacity="0.1" x="50" y="445" width="10" height="10" rx="3" fill="#494949"/>
<rect opacity="0.1" x="25" y="317" width="10" height="10" rx="3" fill="#494949"/>
<rect x="375" y="129" width="17" height="17" rx="5" fill="#FFD465" stroke="#E2A734" stroke-width="3"/>
<rect x="256" y="197" width="17" height="17" rx="5" fill="#FFD465" stroke="#E2A734" stroke-width="3"/>
</svg>
