<svg width="800" height="480" viewBox="0 0 800 480" fill="none" xmlns="http://www.w3.org/2000/svg">
<rect x="-172" y="-214" width="1144" height="301" fill="#494949"/>
<rect x="-209" y="393" width="1218" height="209" fill="#494949"/>
<rect x="-164" y="-122" width="264" height="724" fill="#494949"/>
<rect x="700" y="-131" width="295" height="742" fill="#494949"/>
<rect x="211" y="167" width="378" height="463" fill="#494949"/>
<rect x="147" y="216" width="17" height="17" rx="5" fill="#FFD465" stroke="#F0B542" stroke-width="3"/>
<rect x="676" y="234" width="17" height="17" rx="5" fill="#FFD465" stroke="#F0B542" stroke-width="3"/>
<rect opacity="0.1" x="100" y="383" width="10" height="10" rx="3" fill="#494949"/>
<rect opacity="0.1" x="201" y="383" width="10" height="10" rx="2" fill="#494949"/>
<rect opacity="0.1" x="100" y="87" width="10" height="10" fill="#494949"/>
<rect opacity="0.1" x="690" y="87" width="10" height="10" rx="1" fill="#494949"/>
<rect opacity="0.1" x="690" y="383" width="10" height="10" rx="2" fill="#494949"/>
<rect opacity="0.1" x="589" y="383" width="10" height="10" rx="3" fill="#494949"/>
</svg>
