<svg width="800" height="480" viewBox="0 0 800 480" fill="none" xmlns="http://www.w3.org/2000/svg">
<rect x="760" y="86" width="40" height="314" fill="#494949"/>
<rect x="125" y="307" width="118" height="64" fill="#494949"/>
<rect width="90" height="261" fill="#494949"/>
<rect x="210" y="40" width="153" height="135" fill="#494949"/>
<rect y="440" width="800" height="40" fill="#494949"/>
<rect x="405" y="400" width="395" height="40" fill="#494949"/>
<rect x="210" width="590" height="40" fill="#494949"/>
<rect x="417" y="181" width="209" height="40" fill="#494949"/>
<rect x="417" y="80" width="63" height="63" fill="#494949"/>
<rect x="527" y="111" width="98" height="32" fill="#494949"/>
<rect x="210" y="221" width="153" height="40" fill="#494949"/>
<rect x="313" y="313" width="92" height="127" fill="#494949"/>
<rect y="261" width="25" height="179" fill="#494949"/>
<rect x="90" width="120" height="40" fill="#494949"/>
<rect x="585" y="40" width="40" height="38" fill="#494949"/>
<rect x="125" y="295" width="118" height="12" rx="1" fill="#F44545"/>
<rect x="313" y="301" width="92" height="12" rx="1" fill="#F44545"/>
<rect x="301" y="313" width="12" height="85" rx="1" fill="#F44545"/>
<rect x="243" y="307" width="12" height="64" fill="#F44545"/>
<rect x="90" y="136" width="12" height="125" fill="#F44545"/>
<rect x="125" y="428" width="89" height="12" rx="1" fill="#F44545"/>
<rect x="233" y="434" width="80" height="6" rx="1" fill="#9F51DC"/>
<rect x="754" y="143" width="6" height="117" rx="1" fill="#9F51DC"/>
<rect x="204" y="42" width="6" height="80" rx="1" fill="#F09D3C"/>
<rect x="27" y="434" width="80" height="6" rx="1" fill="#F09D3C"/>
<rect x="104" y="40" width="91" height="12" fill="#F44545"/>
<rect x="90" y="40" width="12" height="34" fill="#F44545"/>
</svg>
