<svg width="800" height="480" viewBox="0 0 800 480" fill="none" xmlns="http://www.w3.org/2000/svg">
<rect x="130" y="173" width="70" height="167" fill="#494949"/>
<rect x="-95" y="430" width="970" height="171" fill="#494949"/>
<rect x="-95" y="173" width="135" height="167" fill="#494949"/>
<rect x="-121" y="-99" width="954" height="139" fill="#494949"/>
<rect x="459" y="340" width="440" height="252" fill="#494949"/>
<rect x="491" y="-89" width="408" height="207" fill="#494949"/>
<rect x="530" y="-89" width="369" height="642" fill="#494949"/>
<rect x="324" y="40" width="167" height="12" fill="#F44545"/>
<rect x="434" y="46" width="17" height="17" rx="5" fill="#FFD465" stroke="#E2A734" stroke-width="3"/>
<rect x="105" y="400" width="17" height="17" rx="5" fill="#FFD465" stroke="#E2A734" stroke-width="3"/>
<rect opacity="0.1" x="481" y="40" width="10" height="10" rx="1" fill="#494949"/>
<rect opacity="0.1" x="520" y="118" width="10" height="10" rx="1" fill="#494949"/>
<rect opacity="0.1" x="449" y="420" width="10" height="10" rx="2" fill="#494949"/>
<rect opacity="0.1" x="520" y="330" width="10" height="10" rx="2" fill="#494949"/>
</svg>
