<svg width="800" height="480" viewBox="0 0 800 480" fill="none" xmlns="http://www.w3.org/2000/svg">
<rect x="-100" y="-109" width="191" height="221" fill="#494949"/>
<rect x="-92" y="-118" width="556" height="176" fill="#494949"/>
<rect x="309" y="-90" width="139" height="243" fill="#494949"/>
<rect x="-92" y="-41" width="147" height="555" fill="#494949"/>
<rect x="-92" y="402" width="196" height="148" fill="#494949"/>
<rect x="583" y="402" width="316" height="187" fill="#494949"/>
<rect x="443" y="434" width="303" height="147" fill="#494949"/>
<rect x="360" y="463" width="243" height="131" fill="#494949"/>
<rect x="-12" y="434" width="199" height="131" fill="#494949"/>
<rect x="214" y="247" width="109" height="81" fill="#494949"/>
<rect x="737" y="-90" width="156" height="283" fill="#494949"/>
<rect x="615" y="-109" width="302" height="229" fill="#494949"/>
<rect x="309" y="-118" width="502" height="190" fill="#494949"/>
<rect x="657" y="394.998" width="80" height="7" fill="#F6EEE5"/>
<rect x="229" y="241" width="80" height="6" rx="1" fill="#7C5DBE"/>
<rect x="448" y="72" width="76" height="12" fill="#F44545"/>
<rect x="91" y="58" width="218" height="12" fill="#F44545"/>
<rect x="55" y="112" width="12" height="135" fill="#F44545"/>
<rect x="664" y="270" width="17" height="17" rx="5" fill="#FFD465" stroke="#E2A734" stroke-width="3"/>
<rect opacity="0.1" x="91" y="58" width="10" height="10" fill="#494949"/>
<rect opacity="0.1" x="448" y="72" width="10" height="10" fill="#494949"/>
<rect opacity="0.1" x="55" y="112" width="10" height="10" fill="#494949"/>
<rect opacity="0.1" x="55" y="392" width="10" height="10" rx="3" fill="#494949"/>
<rect opacity="0.1" x="104" y="424" width="10" height="10" rx="3" fill="#494949"/>
<rect opacity="0.1" x="433" y="453" width="10" height="10" rx="2" fill="#494949"/>
<rect opacity="0.1" x="573" y="424" width="10" height="10" rx="2" fill="#494949"/>
<rect opacity="0.1" x="727" y="120" width="10" height="10" rx="1" fill="#494949"/>
<rect opacity="0.1" x="605" y="72" width="10" height="10" rx="1" fill="#494949"/>
<rect opacity="0.1" x="299" y="58" width="10" height="10" rx="1" fill="#494949"/>
</svg>
