<svg width="800" height="480" viewBox="0 0 800 480" fill="none" xmlns="http://www.w3.org/2000/svg">
<rect x="-142" y="367" width="310" height="189" fill="#494949"/>
<rect x="136" y="346" width="32" height="134" fill="#494949"/>
<rect x="-125" width="185" height="480" fill="#494949"/>
<rect x="-108" y="427" width="312" height="129" fill="#494949"/>
<rect x="760" y="207" width="210" height="117" fill="#494949"/>
<rect x="716" y="-176" width="238" height="324" fill="#494949"/>
<rect x="108" y="103" width="96" height="168" fill="#494949"/>
<rect x="-142" y="-169" width="346" height="209" fill="#494949"/>
<rect x="281" y="367" width="268" height="307" fill="#494949"/>
<rect x="108" y="103" width="308" height="124" fill="#494949"/>
<rect x="320" y="-144" width="480" height="184" fill="#494949"/>
<rect x="274" y="382" width="7" height="89" rx="1" fill="#F08E47"/>
<rect x="416" y="360" width="80" height="7" rx="1" fill="#F6EEE5"/>
<rect x="709" y="40" width="7" height="89" rx="1" fill="#F08E47"/>
<rect x="753" y="227" width="7" height="80" rx="1" fill="#F6EEE5"/>
<rect x="60" y="40" width="140" height="12" fill="#F44545"/>
<rect x="204" y="-29" width="12" height="64" fill="#F44545"/>
<rect x="204" y="227" width="12" height="39" fill="#F44545"/>
<rect x="96" y="107" width="12" height="159" rx="1" fill="#F44545"/>
<rect x="308" y="-29" width="12" height="64" rx="1" fill="#F44545"/>
<rect x="113" y="91" width="298" height="12" rx="1" fill="#F44545"/>
</svg>
