<svg width="800" height="480" viewBox="0 0 800 480" fill="none" xmlns="http://www.w3.org/2000/svg">
<rect x="487" y="-149" width="358" height="241" fill="#494949"/>
<rect x="-90" y="-140" width="792" height="185" fill="#494949"/>
<rect x="-141" y="-87" width="211" height="487" fill="#494949"/>
<rect x="-141" y="173" width="249" height="416" fill="#494949"/>
<rect x="196" y="142" width="146" height="103" fill="#494949"/>
<rect x="-103" y="-149" width="211" height="230" fill="#494949"/>
<rect x="603" y="-140" width="377" height="760" fill="#494949"/>
<rect x="541" y="245" width="377" height="375" fill="#494949"/>
<rect x="-160" y="372" width="577" height="261" fill="#494949"/>
<rect x="106" y="440" width="817" height="164" fill="#494949"/>
<rect x="302" y="365" width="80" height="7" rx="1" fill="#F18A40"/>
<rect x="70" y="92" width="7" height="70" fill="#F6EEE5"/>
<rect x="417" y="428" width="124" height="12" rx="1" fill="#F44545"/>
<rect opacity="0.1" x="108" y="45" width="10" height="10" fill="#494949"/>
<rect opacity="0.1" x="70" y="81" width="10" height="10" fill="#494949"/>
<rect opacity="0.1" x="477" y="45" width="10" height="10" rx="1" fill="#494949"/>
<rect opacity="0.1" x="593" y="92" width="10" height="10" rx="1" fill="#494949"/>
<rect opacity="0.1" x="531" y="430" width="10" height="10" rx="2" fill="#494949"/>
<rect opacity="0.1" x="593" y="235" width="10" height="10" rx="2" fill="#494949"/>
<rect opacity="0.1" x="417" y="430" width="10" height="10" rx="3" fill="#494949"/>
<rect opacity="0.1" x="108" y="362" width="10" height="10" rx="3" fill="#494949"/>
<rect opacity="0.1" x="70" y="163" width="10" height="10" rx="3" fill="#494949"/>
<rect x="462" y="220" width="17" height="17" rx="5" fill="#FFD465" stroke="#E2A734" stroke-width="3"/>
</svg>
