<svg width="32" height="32" viewBox="0 0 32 32" fill="none" xmlns="http://www.w3.org/2000/svg">
<rect x="2" y="2" width="28" height="28" rx="3" fill="#6BCB6F" stroke="#5DB261" stroke-width="4"/>
<path d="M17.1707 7.53693C16.9881 7.04848 16.5214 6.72473 15.9999 6.72473C15.4784 6.72473 15.0117 7.04848 14.8291 7.53693L13.1376 12.0604L8.31283 12.2713C7.79184 12.294 7.33972 12.6378 7.17857 13.1338C7.01743 13.6298 7.18111 14.1737 7.58922 14.4983L11.3686 17.5048L10.0782 22.1586C9.93886 22.6611 10.1261 23.1974 10.548 23.5039C10.9699 23.8104 11.5378 23.8228 11.9726 23.535L15.9999 20.8696L20.0272 23.535C20.462 23.8228 21.0299 23.8104 21.4518 23.5039C21.8737 23.1974 22.0609 22.6611 21.9216 22.1586L20.6311 17.5048L24.4106 14.4983C24.8187 14.1737 24.9824 13.6298 24.8212 13.1338C24.6601 12.6378 24.2079 12.294 23.687 12.2713L18.8622 12.0604L17.1707 7.53693Z" fill="#86ED8A" stroke="#4FA353" stroke-width="2.5" stroke-linejoin="round"/>
</svg>
