<svg width="30" height="30" viewBox="0 0 30 30" fill="none" xmlns="http://www.w3.org/2000/svg">
<rect x="1.25" y="1.25" width="27.5" height="27.5" rx="2.25" fill="#6BCB6F" stroke="#5DB261" stroke-width="2.5"/>
<path d="M16.1806 6.56432C16.0059 6.06166 15.5321 5.72473 14.9999 5.72473C14.4677 5.72473 13.9939 6.06166 13.8192 6.56432L12.2179 11.171L7.34193 11.2703C6.80988 11.2812 6.34302 11.6277 6.17857 12.1338C6.01413 12.6399 6.18815 13.1947 6.61221 13.5162L10.4986 16.4626L9.08631 21.1306C8.9322 21.64 9.11749 22.1911 9.54802 22.5039C9.97855 22.8167 10.5599 22.8226 10.9967 22.5186L14.9999 19.733L19.0031 22.5186C19.4399 22.8226 20.0212 22.8167 20.4518 22.5039C20.8823 22.1911 21.0676 21.64 20.9135 21.1306L19.5012 16.4626L23.3876 13.5162C23.8116 13.1947 23.9857 12.6399 23.8212 12.1338C23.6568 11.6277 23.1899 11.2812 22.6579 11.2703L17.7819 11.171L16.1806 6.56432Z" fill="#FFFA76" stroke="#4FA353" stroke-width="2.5" stroke-linejoin="round"/>
</svg>
