<svg width="32" height="32" viewBox="0 0 32 32" fill="none" xmlns="http://www.w3.org/2000/svg">
<rect x="2" y="2" width="28" height="28" rx="3" fill="#6BCB6F" stroke="#5DB261" stroke-width="4"/>
<path d="M17.1514 7.4883C16.9559 7.02551 16.5023 6.72473 15.9999 6.72473C15.4975 6.72473 15.0439 7.02551 14.8484 7.4883L12.6625 12.6627L7.48818 14.8485C7.02539 15.044 6.72461 15.4976 6.72461 16C6.72461 16.5024 7.02539 16.956 7.48818 17.1515L12.6625 19.3374L14.8484 24.5117C15.0439 24.9745 15.4975 25.2753 15.9999 25.2753C16.5023 25.2753 16.9559 24.9745 17.1514 24.5117L19.3372 19.3374L24.5116 17.1515C24.9744 16.956 25.2752 16.5024 25.2752 16C25.2752 15.4976 24.9744 15.044 24.5116 14.8485L19.3372 12.6627L17.1514 7.4883Z" fill="#86ED8A" stroke="#4FA353" stroke-width="2.5" stroke-linejoin="round"/>
</svg>
