<svg width="34" height="33" viewBox="0 0 34 33" fill="none" xmlns="http://www.w3.org/2000/svg">
<path d="M31.9908 16.4717C31.9908 17.4912 31.2095 18.2898 30.3241 18.2898H28.6574L28.6938 27.358C28.6938 27.5166 28.6834 27.6639 28.6678 27.8168V28.7344C28.6678 29.9861 27.7354 31 26.5844 31H25.751C25.6937 31 25.6364 30.949 25.5791 30.9943C25.5062 30.949 25.4333 31 25.3603 31H22.4175C21.2664 31 20.3341 29.9861 20.3341 28.7344V23.75C20.3341 22.7475 19.5893 21.9375 18.6674 21.9375H15.3339C14.412 21.9375 13.6672 22.7475 13.6672 23.75V28.7344C13.6672 29.9861 12.7348 31 11.5837 31H8.67215C8.59402 31 8.5159 30.9943 8.43777 30.9887C8.37526 30.9943 8.31276 31 8.25026 31H7.41689C6.26632 31 5.33347 29.9861 5.33347 28.7344V22.3906C5.33347 22.3396 5.33503 22.283 5.33816 22.232V18.2898H3.66934C2.73024 18.2898 2 17.4912 2 16.4717C2 15.9619 2.15646 15.5088 2.52138 15.1123L15.8756 2.45403C16.2402 2.05675 16.6569 2 17.0215 2C17.3861 2 17.8027 2.11351 18.1205 2.39728L31.4179 15.1123C31.8346 15.5088 32.0481 15.9619 31.9908 16.4717Z" fill="white"/>
</svg>
