<svg width="114" height="75" viewBox="0 0 114 75" fill="none" xmlns="http://www.w3.org/2000/svg">
<rect x="39" width="36" height="36" rx="6" fill="#D0C8BE"/>
<rect x="42" y="3" width="30" height="30" rx="5" fill="#F6EEE5"/>
<path d="M53.3766 14.2151L56.1361 9.48184C56.5219 8.82004 57.4781 8.82004 57.8639 9.48184L60.6234 14.2151C61.012 14.8818 60.5311 15.7188 59.7595 15.7188H59.125C58.5727 15.7188 58.125 16.1665 58.125 16.7188V26C58.125 26.5523 57.6773 27 57.125 27H56.875C56.3227 27 55.875 26.5523 55.875 26V16.7188C55.875 16.1665 55.4273 15.7188 54.875 15.7188H54.2405C53.4689 15.7188 52.988 14.8818 53.3766 14.2151Z" fill="#585858"/>
<rect width="36" height="36" rx="6" transform="matrix(1 0 0 -1 39 75)" fill="#D0C8BE"/>
<rect width="30" height="30" rx="5" transform="matrix(1 0 0 -1 42 72)" fill="#F6EEE5"/>
<path d="M53.3766 59.7849L56.1361 64.5182C56.5219 65.18 57.4781 65.18 57.8639 64.5182L60.6234 59.7849C61.012 59.1182 60.5311 58.2812 59.7595 58.2812H59.125C58.5727 58.2812 58.125 57.8335 58.125 57.2812V48C58.125 47.4477 57.6773 47 57.125 47H56.875C56.3227 47 55.875 47.4477 55.875 48V57.2812C55.875 57.8335 55.4273 58.2812 54.875 58.2812H54.2405C53.4689 58.2812 52.988 59.1182 53.3766 59.7849Z" fill="#585858"/>
<rect width="36" height="36" rx="6" transform="matrix(-4.37114e-08 1 1 4.37114e-08 0 39)" fill="#D0C8BE"/>
<rect width="30" height="30" rx="5" transform="matrix(-4.37114e-08 1 1 4.37114e-08 3 42)" fill="#F6EEE5"/>
<path d="M14.1231 53.3766L9.3898 56.1361C8.728 56.5219 8.728 57.4781 9.3898 57.8639L14.1231 60.6234C14.7897 61.012 15.6267 60.5311 15.6267 59.7595L15.6267 59.125C15.6267 58.5727 16.0744 58.125 16.6267 58.125L25.908 58.125C26.4602 58.125 26.908 57.6773 26.908 57.125L26.908 56.875C26.908 56.3227 26.4602 55.875 25.908 55.875L16.6267 55.875C16.0744 55.875 15.6267 55.4273 15.6267 54.875L15.6267 54.2405C15.6267 53.4689 14.7897 52.988 14.1231 53.3766Z" fill="#585858"/>
<rect x="114" y="39" width="36" height="36" rx="6" transform="rotate(90 114 39)" fill="#D0C8BE"/>
<rect x="111" y="42" width="30" height="30" rx="5" transform="rotate(90 111 42)" fill="#F6EEE5"/>
<path d="M99.8769 53.3766L104.61 56.1361C105.272 56.5219 105.272 57.4781 104.61 57.8639L99.8769 60.6234C99.2103 61.012 98.3733 60.5311 98.3733 59.7595L98.3733 59.125C98.3733 58.5727 97.9256 58.125 97.3733 58.125L88.092 58.125C87.5398 58.125 87.092 57.6773 87.092 57.125L87.092 56.875C87.092 56.3227 87.5398 55.875 88.092 55.875L97.3733 55.875C97.9256 55.875 98.3733 55.4273 98.3733 54.875L98.3733 54.2405C98.3733 53.4689 99.2103 52.988 99.8769 53.3766Z" fill="#585858"/>
</svg>
