<svg width="20" height="28" viewBox="0 0 20 28" fill="none" xmlns="http://www.w3.org/2000/svg">
<path d="M4.10345 2.81396L4.10345 13.6977C1.62069 14.3023 0.999993 16.1727 1 17.3256C1.00001 19.1395 1 18.5349 4.10345 24.5814V25C4.10345 26.1046 4.99888 27 6.10345 27H14.5172C15.6218 27 16.5172 26.1041 16.5172 24.9996L16.5172 24.5814L16.5173 24.5814C17.7586 23.3721 19 22.1628 19 20.3489V13.0931C19 10.0698 15.2759 10.0698 15.2759 13.0931V11.2791C15.2759 8.25587 11.5517 8.25586 11.5517 11.2791V10.0698C11.5517 7.04656 7.82758 7.65123 7.82758 10.0698V2.81396C7.82758 0.395354 4.10345 0.395338 4.10345 2.81396Z" fill="#F6EEE5"/>
<path d="M4.10345 13.6977L4.85345 13.6977L4.85345 13.6977L4.10345 13.6977ZM4.10345 2.81396L3.35345 2.81396L3.35345 2.81396L4.10345 2.81396ZM19 20.3489L19.75 20.3489V20.3489H19ZM16.5173 24.5814L15.9939 24.0441L15.9869 24.0511L16.5173 24.5814ZM16.5172 24.5814L15.9869 24.0511C15.8463 24.1917 15.7672 24.3825 15.7672 24.5814L16.5172 24.5814ZM16.5172 24.9996L17.2672 24.9996L17.2672 24.9996L16.5172 24.9996ZM4.10345 24.5814H4.85345C4.85345 24.4623 4.82508 24.3449 4.77069 24.2389L4.10345 24.5814ZM1 17.3256L0.25 17.3256L1 17.3256ZM7.07758 13.6977C7.07758 14.1119 7.41337 14.4477 7.82758 14.4477C8.2418 14.4477 8.57758 14.1119 8.57758 13.6977H7.07758ZM10.8017 13.6977C10.8017 14.1119 11.1375 14.4477 11.5517 14.4477C11.9659 14.4477 12.3017 14.1119 12.3017 13.6977H10.8017ZM14.5259 13.6977C14.5259 14.1119 14.8616 14.4477 15.2759 14.4477C15.6901 14.4477 16.0259 14.1119 16.0259 13.6977H14.5259ZM3.35345 17.3256C3.35345 17.7398 3.68924 18.0756 4.10345 18.0756C4.51766 18.0756 4.85345 17.7398 4.85345 17.3256H3.35345ZM4.85345 13.6977L4.85345 2.81396L3.35345 2.81396L3.35345 13.6977L4.85345 13.6977ZM4.85345 2.81396C4.85345 2.41978 4.99701 2.17572 5.1763 2.02046C5.37083 1.85202 5.65458 1.75 5.96551 1.75C6.27645 1.75 6.5602 1.85202 6.75473 2.02047C6.93402 2.17572 7.07758 2.41978 7.07758 2.81396H8.57758C8.57758 1.99883 8.25563 1.33592 7.73664 0.886518C7.2329 0.450312 6.58562 0.250001 5.96552 0.25C5.34542 0.249999 4.69813 0.450307 4.19439 0.886513C3.6754 1.33591 3.35345 1.99883 3.35345 2.81396H4.85345ZM7.07758 2.81396V10.0698H8.57758V2.81396H7.07758ZM8.57758 10.0698C8.57758 9.30428 9.15346 8.82512 9.75034 8.77667C10.0369 8.7534 10.2823 8.83607 10.4541 8.99881C10.6212 9.15709 10.8017 9.47054 10.8017 10.0698H12.3017C12.3017 9.15746 12.0167 8.41278 11.4856 7.90973C10.9591 7.41113 10.2734 7.22927 9.62897 7.28158C8.36377 7.3843 7.07758 8.41676 7.07758 10.0698H8.57758ZM10.8017 10.0698V11.2791H12.3017V10.0698H10.8017ZM12.3017 11.2791C12.3017 10.6808 12.4831 10.3055 12.6845 10.0875C12.8888 9.86634 13.1532 9.76168 13.4138 9.76168C13.6744 9.76168 13.9388 9.86634 14.1431 10.0875C14.3445 10.3055 14.5259 10.6808 14.5259 11.2791H16.0259C16.0259 10.3658 15.7417 9.60736 15.2448 9.06959C14.7509 8.53492 14.0843 8.26168 13.4138 8.26168C12.7433 8.26168 12.0767 8.53492 11.5827 9.06959C11.0859 9.60736 10.8017 10.3658 10.8017 11.2791H12.3017ZM14.5259 11.2791V13.0931H16.0259V11.2791H14.5259ZM16.0259 13.0931C16.0259 12.4948 16.2072 12.1195 16.4086 11.9014C16.6129 11.6803 16.8774 11.5756 17.1379 11.5756C17.3985 11.5756 17.6629 11.6803 17.8672 11.9014C18.0687 12.1195 18.25 12.4948 18.25 13.0931H19.75C19.75 12.1797 19.4658 11.4213 18.969 10.8835C18.475 10.3489 17.8084 10.0756 17.1379 10.0756C16.4675 10.0756 15.8008 10.3489 15.3069 10.8835C14.81 11.4213 14.5259 12.1797 14.5259 13.0931H16.0259ZM18.25 13.0931V20.3489H19.75V13.0931H18.25ZM18.25 20.3489C18.25 21.7956 17.2826 22.7888 15.9939 24.0442L17.0406 25.1186C18.2347 23.9554 19.75 22.5299 19.75 20.3489L18.25 20.3489ZM15.9869 24.0511L15.9869 24.0511L17.0476 25.1117L17.0476 25.1117L15.9869 24.0511ZM15.7672 24.5814L15.7672 24.9996L17.2672 24.9996L17.2672 24.5814L15.7672 24.5814ZM14.5172 26.25H6.10345V27.75H14.5172V26.25ZM4.85345 25V24.5814H3.35345V25H4.85345ZM4.77069 24.2389C3.19533 21.1696 2.44974 19.8682 2.06759 19.0492C1.8886 18.6656 1.82145 18.4512 1.78842 18.2518C1.75207 18.0322 1.75 17.7973 1.75 17.3256L0.25 17.3256C0.250003 17.7608 0.247934 18.1306 0.30857 18.4968C0.372528 18.8831 0.499336 19.2356 0.708281 19.6834C1.10199 20.5272 1.90812 21.9467 3.4362 24.9239L4.77069 24.2389ZM1.75 17.3256C1.75 16.8718 1.87433 16.2689 2.24165 15.7266C2.59817 15.2003 3.21246 14.6866 4.28092 14.4264L3.92598 12.969C2.51168 13.3134 1.57424 14.0372 0.999725 14.8854C0.436006 15.7177 0.249996 16.6265 0.25 17.3256L1.75 17.3256ZM7.07758 10.0698V13.6977H8.57758V10.0698H7.07758ZM10.8017 11.2791V13.6977H12.3017V11.2791H10.8017ZM14.5259 13.0931V13.6977H16.0259V13.0931H14.5259ZM3.35345 13.6977V17.3256H4.85345V13.6977H3.35345ZM6.10345 26.25C5.41309 26.25 4.85345 25.6904 4.85345 25H3.35345C3.35345 26.5188 4.58467 27.75 6.10345 27.75V26.25ZM15.7672 24.9996C15.7672 25.6901 15.2074 26.25 14.5172 26.25V27.75C16.0362 27.75 17.2672 26.5181 17.2672 24.9996L15.7672 24.9996Z" fill="#494949"/>
</svg>
