<svg width="405" height="64" viewBox="0 0 405 64" fill="none" xmlns="http://www.w3.org/2000/svg">
<path d="M35 19.5C35 11 28.5026 5 20.3287 5C11.8629 5 5 11.7255 5 20.0218V58.9162M35 19.5L35.1288 52.9255M35 19.5C35 11 41.1789 5 48.642 5C56.3717 5 62.6378 11.1407 62.6378 18.7155V58.9162" stroke="#3D3D3D" stroke-width="9" stroke-linecap="round"/>
<path d="M112.416 22.9721V44.1535C112.416 52.3068 105.671 58.9163 97.3515 58.9163C89.0317 58.9163 82.2871 52.3068 82.2871 44.1535V22.9721" stroke="#3D3D3D" stroke-width="9" stroke-linecap="round" stroke-linejoin="round"/>
<path d="M134.685 6.28375L134.685 58.9162" stroke="#3D3D3D" stroke-width="9" stroke-linecap="round"/>
<path d="M156.349 14.4522V52.3218C156.349 59.3823 166.828 61.3079 172.068 55.5312M169.448 22.7964H156.349" stroke="#3D3D3D" stroke-width="9" stroke-linecap="round"/>
<path d="M187 24.27L187 58.9304M187 8.86536L187 11.4328" stroke="#3D3D3D" stroke-width="9" stroke-linecap="round"/>
<path d="M234.291 56.34C230.055 58.604 225.14 59.3153 219.023 58.7408C209.906 57.8849 203.197 49.6323 203.587 40.6656C203.961 32.0684 209.982 24.2212 218.645 22.8115C223.518 22.0183 228.677 22.178 232.981 24.8889" stroke="#3D3D3D" stroke-width="9" stroke-linecap="round" stroke-linejoin="round"/>
<path d="M249.377 38.6444C249.377 29.21 256.992 21.562 266.385 21.562C275.778 21.562 283.392 29.21 283.392 38.6444V41.8473C283.392 51.2817 275.778 58.9298 266.385 58.9298C256.992 58.9298 249.377 51.2817 249.377 41.8473V38.6444Z" stroke="#3D3D3D" stroke-width="9"/>
<path d="M322.898 24.5118C314.803 20.1731 307.185 21.1219 302.496 23.5375C301.372 24.1163 300.54 25.0228 299.9 26.0166C296.91 30.6634 299.086 36.92 304.723 38.9555C306.936 39.7546 309.624 40.5128 314.086 41.3894C319.985 42.5484 322.922 44.9706 324.168 47.3791C326.078 51.0727 323.906 56.1893 319.578 57.6443C313.545 59.6725 306.319 59.7436 298.666 55.642" stroke="#3D3D3D" stroke-width="9" stroke-linecap="round" stroke-linejoin="round"/>
<path d="M372.491 34.931V54.7799M372.491 34.931C372.5 27 365.865 21.6884 357.691 21.6884C349.225 21.6884 342.362 28.4139 342.362 36.7102V58.9163M372.491 34.931C372.5 27 378.541 21.6884 386.004 21.6884C393.734 21.6884 400 27.8291 400 35.4039V58.9163" stroke="#3D3D3D" stroke-width="9" stroke-linecap="round"/>
</svg>
